<?xml version="1.0" encoding="utf-8" ?>
<svg xmlns="http://www.w3.org/2000/svg" xmlns:xlink="http://www.w3.org/1999/xlink" width="700" height="700">
	<path fill="#083942" transform="scale(0.683594 0.683594)" d="M494.281 30.2107C528.693 28.4918 563.67 31.6411 597.481 38.0866C682.953 54.3802 762.58 93.0752 827.61 150.98C889.515 206.101 938.393 279.15 964.271 357.987C977.762 399.086 985.136 442.233 987.65 485.367C992.905 575.529 969.815 666.773 925.25 745.057C911.096 769.919 894.693 793.956 875.635 815.335C802.312 897.587 704.89 955.84 595.897 975.311C574.475 979.138 552.671 980.928 530.969 982.163C450.375 985.11 369.289 969.346 297.277 932.554C261.03 914.034 227.537 890.609 196.803 863.988C116.149 794.13 61.5937 696.061 42.7652 591.25C39.2167 571.497 37.504 551.829 36.183 531.835C34.7809 510.612 35.579 488.656 37.489 467.5C46.4968 367.724 85.4336 270.331 151.877 194.849C164.17 180.884 176.97 167.242 190.751 154.727C250.31 100.644 325.692 60.7397 404.157 42.75C434.04 35.8989 463.73 32.1386 494.281 30.2107Z"/>
	<path fill="#F8DAB1" transform="scale(0.683594 0.683594)" d="M607.816 209.186L619.723 214.728C621.523 215.585 623.662 216.318 625.298 217.441L594.031 308.951L569.614 383.988L548.694 384.089L573.325 309.004L607.816 209.186Z"/>
	<path fill="#F4B196" transform="scale(0.683594 0.683594)" d="M607.657 208.8L538.358 177.09L718.597 130.402C709.072 139.149 697.399 146.202 686.925 153.802L630.819 194.209L617.75 202.856C614.451 204.834 610.608 206.315 607.657 208.8Z"/>
	<path fill="#3AB4AD" transform="scale(0.683594 0.683594)" d="M569.614 383.988L594.031 308.951L654.346 309.284L654.022 546.397L635.582 544.404L635.671 538.402L635.834 420.472L635.9 394.855C635.912 392.024 636.556 387.262 635.675 384.631L569.777 384.454L569.614 383.988Z"/>
	<path fill="#3AB4AD" transform="scale(0.683594 0.683594)" d="M493.799 702.009L530.013 701.988L530.061 854.208L636.543 898.923L384.209 899.335C392.479 893.721 403.674 890.92 412.9 887.122L494.017 854.185L493.799 702.009Z"/>
	<path fill="#EF6952" transform="scale(0.683594 0.683594)" d="M718.597 130.402L719.845 130.614L800.227 292.71L705.852 251.843L654.333 229.418L632.034 219.462C630.328 218.634 627.098 216.815 625.298 217.441C623.662 216.318 621.523 215.585 619.723 214.728L607.816 209.186L607.657 208.8C610.608 206.315 614.451 204.834 617.75 202.856L630.819 194.209L686.925 153.802C697.399 146.202 709.072 139.149 718.597 130.402Z"/>
	<path fill="#F4B196" transform="scale(0.683594 0.683594)" d="M654.333 229.418L718.997 130.801L705.852 251.843L654.333 229.418Z"/>
	<path fill="#EF6952" transform="scale(0.683594 0.683594)" d="M569.777 384.454L635.675 384.631C636.556 387.262 635.912 392.024 635.9 394.855L635.834 420.472L635.671 538.402L634.953 538.125C629.64 536.032 624.742 533.283 619.25 531.51C594.776 523.61 565.425 523.161 540.974 531.529L525.962 537.082C523.98 537.798 521.324 539.141 519.218 539.093L569.777 384.454Z"/>
	<path fill="#EF6952" transform="scale(0.683594 0.683594)" d="M368.759 554.356C364.717 553.481 360.448 553.199 356.355 552.438C346.732 550.649 337.269 548.1 328.056 544.802C286.292 529.855 250.933 497.285 232.154 457.184C212.677 415.592 211.523 368.07 227.177 325.031C241.333 286.108 271.915 251.262 309.69 233.712C348.701 215.588 394.346 211.117 435.132 226.084C467.367 237.913 493.73 257.133 514.478 284.602C520.316 292.331 525.775 300.155 529.858 308.972L501.647 308.959C496.622 299.959 489.684 292.473 482.371 285.292C464.242 267.49 443.735 253.173 418.981 246.285C383.063 236.291 344.321 241.905 312.113 260.467C280.508 278.68 255.628 310.26 246.313 345.569C236.654 382.182 238.994 421.531 258.297 454.743C277.991 488.626 309.57 515.806 348.042 525.82L370.294 530.564L370.026 553.75L368.759 554.356Z"/>
	<path fill="#F8DAB1" transform="scale(0.683594 0.683594)" d="M370.294 530.564L348.042 525.82C309.57 515.806 277.991 488.626 258.297 454.743C238.994 421.531 236.654 382.182 246.313 345.569C255.628 310.26 280.508 278.68 312.113 260.467C344.321 241.905 383.063 236.291 418.981 246.285C443.735 253.173 464.242 267.49 482.371 285.292C489.684 292.473 496.622 299.959 501.647 308.959L489.139 308.983L460.942 308.973L449.488 308.976L385.504 309.007L376.535 309.016L370.36 309.043L370.508 370.935C370.498 374.485 370.197 378.338 370.651 381.845L370.33 383.041L370.573 403.79L370.956 482.494L370.899 506.022C370.882 510.337 371.177 515.032 370.579 519.289L370.294 530.564Z"/>
	<path fill="#F5A331" transform="scale(0.683594 0.683594)" d="M460.942 308.973L476.482 293.02L489.139 308.983L460.942 308.973Z"/>
	<path fill="#F5A331" transform="scale(0.683594 0.683594)" d="M385.504 309.007L385.521 252.446C410.483 254.099 434.561 260.665 455.228 275.234C460.609 279.028 465.536 283.644 470.722 287.725C463.128 294.548 455.931 300.977 449.488 308.976L385.504 309.007Z"/>
	<path fill="#F5A331" transform="scale(0.683594 0.683594)" d="M370.579 519.289C364.927 518.336 359.081 517.58 353.532 516.144C330.072 510.075 311.1 498.028 292.935 482.327L370.573 403.79L370.956 482.494L370.899 506.022C370.882 510.337 371.177 515.032 370.579 519.289Z"/>
	<path fill="#F5A331" transform="scale(0.683594 0.683594)" d="M370.508 370.935L291.231 290.014C306.879 274.051 327.367 262.653 348.971 256.962C357.999 254.583 367.112 253.355 376.37 252.292L376.535 309.016L370.36 309.043L370.508 370.935Z"/>
	<path fill="#F5A331" transform="scale(0.683594 0.683594)" d="M250.821 392.277L370.96 392.984L329.168 433.671L286.994 476.027C270.7 457.631 259.31 437.079 253.901 413.007C252.375 406.214 251.665 399.183 250.821 392.277Z"/>
	<path fill="#F5A331" transform="scale(0.683594 0.683594)" d="M370.33 383.041L250.875 382.841C251.138 361.148 257.496 339.085 268.202 320.25C273.098 311.637 278.871 303.945 284.965 296.184L370.651 381.845L370.33 383.041Z"/>
	<path fill="#9DD5C7" transform="scale(0.683594 0.683594)" d="M573.325 309.004L548.694 384.089L569.614 383.988L569.777 384.454L519.218 539.093C521.324 539.141 523.98 537.798 525.962 537.082L540.974 531.529C565.425 523.161 594.776 523.61 619.25 531.51C624.742 533.283 629.64 536.032 634.953 538.125L635.671 538.402L635.582 544.404L654.022 546.397C653.884 558.447 653.58 570.469 651.655 582.39C646.589 613.759 631.126 642.61 608.495 664.808C587.472 685.431 559.052 698.307 530.013 701.988L493.799 702.009L489.5 701.503C483.379 700.663 477.698 699.036 471.791 697.273C442.85 688.639 418.505 670.899 400.324 646.95C383.495 624.782 372.505 596.942 369.487 569.259C368.96 564.424 368.096 559.193 368.759 554.356L370.026 553.75L370.294 530.564L370.579 519.289C371.177 515.032 370.882 510.337 370.899 506.022L370.956 482.494L370.573 403.79L370.33 383.041L370.651 381.845C370.197 378.338 370.498 374.485 370.508 370.935L370.36 309.043L376.535 309.016L385.504 309.007L449.488 308.976L460.942 308.973L489.139 308.983L501.647 308.959L529.858 308.972L573.325 309.004Z"/>
	<path fill="#CE2837" transform="scale(0.683594 0.683594)" d="M519.218 539.093C521.324 539.141 523.98 537.798 525.962 537.082L540.974 531.529C565.425 523.161 594.776 523.61 619.25 531.51C624.742 533.283 629.64 536.032 634.953 538.125L635.671 538.402L635.582 544.404C635.48 556.213 635.223 568.071 633.28 579.75C628.927 605.912 614.914 631.654 596.093 650.155C573.867 672.003 540.901 684.848 509.75 684.385C496.111 684.182 482.839 681.48 470.073 676.825L518.438 540.323L519.218 539.093Z"/>
	<path fill="#F5A331" transform="scale(0.683594 0.683594)" d="M551.823 591.109C555.803 590.793 560.109 591.398 563.812 592.887C569.103 595.015 572.93 599.719 575.058 604.897C577.3 610.351 576.834 615.978 574.524 621.322C571.544 628.213 565.629 630.88 559.05 633.41C554.796 633.68 550.01 633.249 546.13 631.361C540.699 628.717 537.123 624.022 535.277 618.348C533.586 613.151 534.12 607.612 536.615 602.77C540.021 596.163 544.871 593.238 551.823 591.109Z"/>
	<path fill="#EF6952" transform="scale(0.683594 0.683594)" d="M548.694 384.089L569.614 383.988L569.777 384.454L519.218 539.093L518.438 540.323L470.073 676.825C463.517 674.742 457.773 671.612 451.818 668.255L436.915 657.859C410.737 637.601 393.866 605.499 389.584 572.876C388.119 564.097 388.413 555.336 388.407 546.467L388.401 512.784L388.225 385.001L548.256 384.872L548.694 384.089Z"/>
	<path fill="#F8DAB1" transform="scale(0.683594 0.683594)" d="M441.561 431.156C447.213 430.615 453.102 431.948 458.035 434.716C463.775 437.938 468.83 444.625 470.402 451.024C472.142 458.111 471.183 465.174 467.453 471.5C463.131 478.83 456.305 482.412 448.308 484.472C441.537 484.62 435.534 483.608 429.782 479.75C423.761 475.712 419.535 468.58 418.373 461.464C417.232 454.483 418.97 447.255 423.077 441.5C427.492 435.314 434.27 432.295 441.561 431.156Z"/>
	<path fill="#F4B196" transform="scale(0.683594 0.683594)" d="M548.694 384.089L569.614 383.988L569.777 384.454L519.218 539.093L518.438 540.323C508.949 544.215 499.934 550.968 491.228 556.338L548.256 384.872L548.694 384.089Z"/>
	<path fill="#CE2837" transform="scale(0.683594 0.683594)" d="M389.584 572.876C397.167 573.98 404.274 576.71 412.007 577.659C440.238 581.123 466.998 570.201 491.118 556.731L451.818 668.255L436.915 657.859C410.737 637.601 393.866 605.499 389.584 572.876Z"/>
</svg>
