<?xml version="1.0" encoding="utf-8" ?>
<svg xmlns="http://www.w3.org/2000/svg" xmlns:xlink="http://www.w3.org/1999/xlink" width="720" height="720">
	<path transform="scale(1.125 1.125)" d="M160.735 238.642C157.085 238.983 152.262 239.133 149.829 235.835C146.713 231.614 147.287 217.085 148.01 211.783C153.225 173.545 185.682 146.542 224.469 149.649C225.613 143.533 232.601 122.348 235.774 115.82C239.626 107.896 251.612 110.825 250.863 119.664C250.493 124.036 248.204 128.655 246.795 132.811L239.463 153.525C255.334 161.208 267.432 169.819 276.492 185.708L279.432 191.445C282.566 197.631 287.181 206.262 278.113 209.77C276.725 210.307 273.581 210.755 272.264 209.976L271.776 209.649C270.3 214.219 268.419 217.559 265.564 221.376C273.596 222.897 282.404 222.171 290.601 222.169L337.561 222.172C340.463 222.142 343.347 221.563 346.199 221.562L369.778 155.703C372.439 150.037 390.081 148.376 395.706 147.267L488.21 128.518C494.168 127.281 505.325 123.148 507.569 131.865C510.179 142.006 501.015 142.549 493.906 143.91L382.858 166.162L363.422 221.947L433.042 222.158C437.087 222.159 441.287 221.939 445.312 222.289C450.768 222.764 452.597 230.05 450.084 234.25C448.244 237.326 445.636 240.15 443.632 243.183L342.451 390.779L338.367 395.979C336.225 398.673 337.145 400.419 337.154 403.75L337.216 533.154L393.422 564.607C398.488 567.143 402.66 568.691 402.522 575L402.515 575.442C402.367 581.478 395.139 581.37 390.971 581.504L268.204 581.551C265.555 581.549 262.349 581.855 259.814 581.094L259.275 580.942C256.937 580.086 255.162 578.048 254.683 575.625L254.589 575.173C253.065 567.248 264.558 564.082 269.88 561.102L301.765 543.53C308.179 540.13 314.439 535.898 321.088 533.016L321.018 409.574C321.016 405.637 322.051 400.832 320 397.344C314.317 387.678 307.924 378.664 301.542 369.457L247.608 292.223C242.468 284.866 237.304 277.286 231.344 270.563C229.877 271.533 209.461 272.781 206.819 272.833L205.293 272.824C202.587 279.662 194.694 275.121 190.703 271.906L181.91 266.134C174.591 260.617 162.137 248.412 160.735 238.642ZM328.605 547.074L304.932 559.916C301.832 561.645 298.775 563.257 295.859 565.3L329.136 565.409L361.728 565.328L328.605 547.074Z"/>
	<path fill="#FA912D" transform="scale(1.125 1.125)" d="M205.293 272.824C207.29 268.105 208.364 262.874 209.577 257.905L212.993 243.903L229.187 267.802L231.344 270.563C229.877 271.533 209.461 272.781 206.819 272.833L205.293 272.824Z"/>
	<path fill="#FDB176" transform="scale(1.125 1.125)" d="M229.187 267.802L231.344 270.563C229.877 271.533 209.461 272.781 206.819 272.833L207.65 271.874C209.274 270.177 221.814 268.692 223.903 270.781C225.385 270.799 228.291 271.151 229.531 270.472L229.534 269.375C229.114 267.481 229.424 270.115 229.227 268.281L229.187 267.802Z"/>
	<path fill="#E22617" transform="scale(1.125 1.125)" d="M265.564 221.376C262.448 220.815 259.116 220.958 255.955 220.95L218.879 220.297C225.335 205.106 228.43 184.856 234.297 168.503C250.258 176.397 258.601 186.417 266.969 201.406L269.47 205.781C270.292 207.099 271.242 208.16 271.776 209.649C270.3 214.219 268.419 217.559 265.564 221.376Z"/>
	<path fill="#E22617" transform="scale(1.125 1.125)" d="M357.691 237.591L428.036 237.819L412.478 259.541L410.876 261.17C394.295 266.476 364.543 264.844 347.465 263.364L357.691 237.591Z"/>
	<path fill="#E22617" transform="scale(1.125 1.125)" d="M226.837 237.301L340.532 237.592L333.424 255.887L331.889 260.936L310.906 258.629C287.405 256.342 266.599 255.772 243.28 259.142L226.837 237.301Z"/>
	<path fill="#E22617" transform="scale(1.125 1.125)" d="M160.735 238.642L161.008 238.444C166.295 234.491 163.49 226.547 163.568 220C163.932 189.466 188.4 165.114 218.614 165.306L218.484 165.671C217.455 168.607 216.747 171.661 215.89 174.651L196.862 243.438C195.453 248.854 189.71 265.996 190.556 270.781L190.703 271.906L181.91 266.134C174.591 260.617 162.137 248.412 160.735 238.642Z"/>
	<path fill="#FA912D" transform="scale(1.125 1.125)" d="M264.985 272.634C285.095 271.787 305.664 273.624 325.582 276.321L313.264 309.224C311.692 313.535 309.655 318.028 308.703 322.517C306.874 331.14 319.15 335.977 323.342 328.062C325.8 323.421 326.956 317.901 328.785 312.977L341.926 278.955C361.15 281.476 380.112 281.339 399.409 279.983L382.271 304.857L329.53 381.773L253.988 273.496L264.985 272.634Z"/>
</svg>
