<?xml version="1.0" encoding="utf-8" ?>
<svg xmlns="http://www.w3.org/2000/svg" xmlns:xlink="http://www.w3.org/1999/xlink" width="720" height="720">
	<path transform="scale(1.125 1.125)" d="M117.752 103.534C123.051 103.196 128.53 103.492 133.85 103.493L192.559 103.507C214.313 103.519 215.072 102.793 222.216 125.712L236.659 170.926C237.905 174.783 239.637 178.702 240.556 182.635L240.627 182.949C243.291 183.686 247.324 183.155 250.156 183.155L349.788 183.131C364.186 183.13 378.82 182.586 393.191 183.421L393.754 181.094C404.17 144.062 447.47 123.173 483.125 136.578C513.651 148.055 534.292 182.156 525.817 214.376L521.766 227.333C508.764 258.373 469.172 276.395 437.672 262.779L316.631 433.025C314.033 436.94 314.701 436.257 314.697 441.272L314.754 542.656L314.757 555.199L348.713 555.246C353.372 555.249 358.537 554.82 363.133 555.397C379.965 557.511 381.123 581.364 366.088 584.675L365.469 584.796C360.627 585.806 354.825 585.184 349.837 585.183L235.781 585.268C228.228 584.971 222.041 577.694 222.198 570.301C222.568 553.01 238.295 555.178 250.564 555.231L284.598 555.358L284.58 445.227C284.584 442.482 285.797 436.895 284.283 434.59L124.47 207.255C123.081 205.106 121.624 202.506 121.397 199.913L121.26 196.562C121.639 183.293 135.166 182.995 144.844 183.13L208.359 183.206C207.72 178.26 205.685 173.153 204.096 168.438L196.885 146.289C195.609 142.271 193.99 138.35 193.203 134.199C188.628 133.053 182.511 133.729 177.755 133.725L124.162 133.678C121.076 133.629 117.556 133.846 114.601 132.936L114.219 132.816C99.4826 128.393 102.043 106.048 117.752 103.534ZM251.252 213.445L266.327 260.874C267.445 264.713 268.452 268.613 270.199 272.224L393.61 272.044L411.519 247.668L436.123 213.608L251.252 213.445ZM166.874 213.394L204.542 267.699C205.426 269.049 206.181 270.796 207.459 271.798C211.938 272.374 216.554 272.253 221.066 272.256L237.873 272.204C236.631 266.579 234.573 261.278 232.801 255.811L223.685 227.645C222.302 223.371 219.823 218.16 219.485 213.746L166.874 213.394Z"/>
	<path fill="#FE9200" transform="scale(1.125 1.125)" d="M458.018 163.259L460.145 163.176C469.747 163.219 478.838 166.741 485.606 173.645C510.182 198.715 491.149 237.197 456.952 236.848L464.33 227.282L471.476 217.727C476.128 211.774 482.492 205.58 482.235 197.427C481.708 180.718 465.757 182.213 454.494 182.196L425.514 182.459L429.771 176.719C437.054 168.357 447.082 164.034 458.018 163.259Z"/>
	<path fill="#DD0037" transform="scale(1.125 1.125)" d="M230.96 302.337L371.159 302.818L329.01 363.078L300.524 403.622L230.96 302.337Z"/>
</svg>
