<?xml version="1.0" encoding="utf-8" ?>
<svg xmlns="http://www.w3.org/2000/svg" xmlns:xlink="http://www.w3.org/1999/xlink" width="720" height="720">
	<path fill="#022E71" transform="scale(1.125 1.125)" d="M537.255 86.6889C544.173 86.4879 548.742 96.509 536.17 100.296L466.914 121.123C463.098 122.269 463.134 123.329 460.99 126.749L445.538 153.26C442.445 158.758 439.693 164.467 435.823 169.469C447.16 176.185 453.067 193.521 447.781 205.708C445.069 211.961 441.416 216.928 435.922 221.028L464.325 220.459C473.427 220.456 477.158 217.713 479.782 227.359C478.111 230.965 474.878 233.513 472.213 236.395L360.734 358.003C349.889 369.472 339.438 381.617 327.252 391.694L327.152 503.359L392.286 552.66C395.001 554.643 397.944 556.517 400.304 558.926C404.111 562.812 400.983 568.774 395.781 568.944L246.295 568.891C243.515 568.931 238.123 569.835 236.213 567.26C230.128 559.06 247.141 551.422 253.184 547.053L291.093 519.934L305.365 509.768C308.559 507.477 311.811 505.282 314.713 502.618L314.64 396.351C314.617 389.243 313.677 391.452 308.243 385.928L217.013 281.335L214.547 282.031C197.23 285.528 174.145 282.691 159.581 272.705C144.231 262.179 134.604 243.624 134.665 225.048C134.885 157.955 233.034 147.416 244.395 220.859L397.386 220.997C397.405 220.458 393.66 216.975 393.03 216.329C376.577 199.462 387.925 168.36 410.576 164.036C415.209 163.151 419.987 163.51 424.658 163.843L453.139 114.473C456.039 109.849 468.235 107.298 473.143 105.779L522.409 91.0567C527.364 89.5275 532.189 87.8435 537.255 86.6889ZM451.465 233.642L451.463 233.941C451.435 235.913 450.386 237.996 453.241 237.95L456.702 233.769L451.465 233.642ZM384.954 233.628C385.173 235.231 385.04 236.397 386.73 236.997L388.728 233.786L384.954 233.628Z"/>
	<path fill="#FE4740" transform="scale(1.125 1.125)" d="M416.636 176.678C418.764 176.358 421.405 176.462 423.488 177.021L424.062 177.18C440.018 181.407 444.11 211.206 418.462 215.726C408.778 215.722 400.604 210.591 398.019 200.969L397.62 199.281C395.332 186.069 404.515 178.297 416.636 176.678Z"/>
	<path fill="white" transform="scale(1.125 1.125)" d="M453.241 237.95L436.829 256.112C433.85 259.11 431.223 263.006 426.667 262.669L385.349 262.477L397.721 242.877C406.546 228.793 401.002 233.035 418.366 233.433L451.465 233.642L451.463 233.941C451.435 235.913 450.386 237.996 453.241 237.95Z"/>
	<path fill="#B6D1F1" transform="scale(1.125 1.125)" d="M320.322 514.957C321.273 515.115 322.149 516.001 322.898 516.585L376.417 556.413L318.359 556.234L282.766 556.286C275.92 556.29 268.958 555.978 262.174 557C263.276 555.648 265.234 554.529 266.672 553.508L320.322 514.957Z"/>
	<path fill="#FE4740" transform="scale(1.125 1.125)" d="M187.976 182.631C210.836 181.375 226.779 200.285 232.129 220.797C226.841 220.261 221.457 220.496 216.146 220.504L177.449 219.963C171.426 219.525 168.957 218.85 166.329 224.835C169.176 231.141 174.33 236.193 178.955 241.225L191.776 255.319L204.677 269.488L199.007 269.949C186.267 270.802 173.23 267.867 163.462 259.259C133.768 233.09 146.902 184.946 187.976 182.631Z"/>
	<path fill="white" transform="scale(1.125 1.125)" d="M386.73 236.997C385.064 240.73 382.182 244.497 380.022 248.021L371.29 262.544L215.826 262.486C212.749 262.119 192.99 238.914 189.596 233.685L384.954 233.628C385.173 235.231 385.04 236.397 386.73 236.997Z"/>
	<path fill="#7ECD37" transform="scale(1.125 1.125)" d="M379.296 274.792L419.772 275.318L321.768 380.302C316.911 376.514 313.104 371.781 309.065 367.188L253.742 304.579L229.625 275.279L364.234 275.069C360.882 281.904 356.519 288.333 352.602 294.86L340.866 314.576C338.398 318.333 332.156 323.925 332.12 328.135C332.089 331.731 334.518 334.262 338.125 334.052C343.84 333.719 353.244 317.074 356.084 312.46L371.996 285.949C374.171 282.315 376.065 278.266 378.962 275.149L379.296 274.792Z"/>
</svg>
