<?xml version="1.0" encoding="utf-8" ?>
<svg xmlns="http://www.w3.org/2000/svg" xmlns:xlink="http://www.w3.org/1999/xlink" width="1024" height="1024">
	<path fill="#F6B826" d="M178.336 597.602C180.427 604.031 183.067 611.813 183.959 618.505L161.709 606.499L178.336 597.602Z"/>
	<path d="M334.491 877.617C337.837 877.547 341.831 880.282 344.938 881.591L360.213 887.488C380.649 895.019 401.546 902.054 423.147 905.281L416.447 908.698C412.396 908.789 407.569 906.459 403.699 905.282C379.969 898.063 356.462 889.205 334.491 877.617Z"/>
	<path fill="#163482" d="M822.987 273.399L849.877 311.255L816.323 322.023L797.343 295.757C807.493 290.375 815.658 282.573 822.63 273.517L822.987 273.399Z"/>
	<path fill="#163482" d="M567.457 126.343C605.95 132.211 642.298 145.749 676.196 164.672C672.732 175.399 669.111 187.243 668.393 198.547L651.249 189.073C647.997 184.115 642.702 179.347 638.693 174.848L607.632 140.279L607.053 140.5C606.91 142.653 607.065 144.236 607.696 146.301C606.205 150.645 606.923 156.828 606.905 161.442L583.542 139.998C578.514 135.66 571.383 131.535 567.457 126.343Z"/>
	<path fill="#1667BA" d="M647.33 939.262C579.032 960.641 504.578 962.967 433.935 954.144C411.64 951.359 388.045 947.761 367.25 939.024L366.992 938.25L369.428 937.507C372.187 938.129 374.852 938.041 377.639 938.346C385.453 939.203 393.825 938.665 401.729 938.719L448.902 938.946L596.318 938.954L628.5 938.928C634.477 938.891 641.554 937.672 647.33 939.262Z"/>
	<path fill="#14CAD9" d="M411.052 917.69L429.601 909.19C441.287 914.096 453.274 916.568 465.75 918.502C481.736 920.981 497.08 922.009 513.242 922.04C519.54 922.053 526.045 922.326 532.318 921.807C553.029 920.092 573.176 915.991 593.102 910.197L628.223 926.965L650.615 937.873L650.75 938.41L647.33 939.262C641.554 937.672 634.477 938.891 628.5 938.928L596.318 938.954L448.902 938.946L401.729 938.719C393.825 938.665 385.453 939.203 377.639 938.346C374.852 938.041 372.187 938.129 369.428 937.507L411.052 917.69Z"/>
	<path fill="#0798D4" d="M411.052 917.69L429.601 909.19C441.287 914.096 453.274 916.568 465.75 918.502C481.736 920.981 497.08 922.009 513.242 922.04C519.54 922.053 526.045 922.326 532.318 921.807C553.029 920.092 573.176 915.991 593.102 910.197L628.223 926.965C626.611 927.503 625.125 927.731 623.434 927.787L592.301 927.543L508.383 927.583L452.517 927.503C439.088 927.51 425.808 927.814 412.385 926.952L411.218 918.554L411.052 917.69Z"/>
	<path fill="#1667BA" d="M607.696 146.301C607.065 144.236 606.91 142.653 607.053 140.5L607.632 140.279L638.693 174.848C642.702 179.347 647.997 184.115 651.249 189.073L668.393 198.547C668.738 213.9 669.696 229.942 673.931 244.766C675.935 251.781 678.814 258.608 681.313 265.458C683.075 269.027 684.829 272.592 685.676 276.508L686.828 280.166C683.994 284.251 680.244 288.683 677.933 293.049L665.146 310.94C663.787 315.371 660.622 319.64 658.25 323.623C656.77 326.109 655.33 329.131 653.233 331.138C652.012 332.064 650.999 332.895 650.044 334.1L647.676 339.196L638.239 320.859C636.856 317.092 636.399 312.908 635.502 309C634.006 302.477 631.888 296.008 629.066 289.935C627.385 286.315 625.493 282.634 623.372 279.25L616.95 269.876C615.252 267.497 613.16 265.139 612.756 262.166C612.281 257.396 610.993 252.671 609.851 248.03C607.988 238.773 606.398 229.559 606.109 220.094C605.88 212.622 606.698 204.929 607.502 197.51L607.968 168.318C608.056 166.165 608.086 163.291 606.905 161.442C606.923 156.828 606.205 150.645 607.696 146.301Z"/>
	<path fill="#FEFEFE" d="M651.249 189.073L668.393 198.547C668.738 213.9 669.696 229.942 673.931 244.766C675.935 251.781 678.814 258.608 681.313 265.458C679.384 265.084 677.37 263.806 675.592 262.942C673.236 244.028 669.67 226.177 661.595 208.744C658.584 202.242 654.01 196.169 651.43 189.557L651.249 189.073Z"/>
	<path fill="#FCE414" d="M675.592 262.942C677.37 263.806 679.384 265.084 681.313 265.458C683.075 269.027 684.829 272.592 685.676 276.508L686.828 280.166C683.994 284.251 680.244 288.683 677.933 293.049L665.146 310.94C665.061 308.873 666.532 306.729 667.307 304.829C668.623 301.603 669.64 298.184 670.605 294.838C673.645 284.297 674.801 273.833 675.592 262.942Z"/>
	<defs>
		<linearGradient id="gradient_0" gradientUnits="userSpaceOnUse" x1="609.26178" y1="326.95398" x2="647.44965" y2="158.32034">
			<stop offset="0" stop-color="#262D93"/>
			<stop offset="1" stop-color="#245AAB"/>
		</linearGradient>
	</defs>
	<path fill="url(#gradient_0)" d="M607.696 146.301C609.563 149.46 610.765 152.804 612.367 156.084C619.578 170.849 626.543 186.048 631.392 201.778C636.569 218.576 639.925 235.73 643.046 253C647.824 279.429 652.149 307.226 650.044 334.1L647.676 339.196L638.239 320.859C636.856 317.092 636.399 312.908 635.502 309C634.006 302.477 631.888 296.008 629.066 289.935C627.385 286.315 625.493 282.634 623.372 279.25L616.95 269.876C615.252 267.497 613.16 265.139 612.756 262.166C612.281 257.396 610.993 252.671 609.851 248.03C607.988 238.773 606.398 229.559 606.109 220.094C605.88 212.622 606.698 204.929 607.502 197.51L607.968 168.318C608.056 166.165 608.086 163.291 606.905 161.442C606.923 156.828 606.205 150.645 607.696 146.301Z"/>
	<path fill="#9E288A" d="M723.363 260.378C729.812 256.73 735.488 252.128 741.439 247.75C754.424 238.198 767.661 233.055 783.5 230.342C795.652 228.261 807.903 228.847 820.147 229.377C831.869 230.969 843.594 232.879 854.953 236.25C860.851 238 866.745 239.976 871.937 243.34L873.532 244.25C872.438 245.69 869.529 246.502 867.852 247.247L854.878 253.337C846.667 257.625 838.856 262.538 831.127 267.629C828.521 269.345 825.115 271.153 822.987 273.399L822.63 273.517C815.658 282.573 807.493 290.375 797.343 295.757C792.986 298.153 788.595 300.749 783.974 302.596C777.865 305.038 771.273 306.437 764.905 308.035L728.048 305.471L693.023 297.912C688.968 299.401 685.743 301.639 682.612 304.561C681.692 305.42 680.469 306.969 679.41 307.549C677.51 308.188 676.82 309.789 674.857 310.191C674.218 309.569 674.361 309.871 674.139 309.205C673.764 308.082 673.251 307.028 672.759 305.953C672.972 305.052 673.147 304.439 673.679 303.665C674.315 302.738 675.037 301.944 675.277 300.813C675.443 300.028 675.512 298.202 675.861 297.527C676.993 295.344 677.773 295.73 677.933 293.049C680.244 288.683 683.994 284.251 686.828 280.166L695.23 270.986C699.813 267.855 703.8 263.373 707.689 259.428L708.735 258.908C713.509 259.459 718.556 260.422 723.363 260.378Z"/>
	<path fill="#7C233C" d="M694.528 292.995C720.306 292.905 745.546 296.351 771.162 291.376C777.528 290.139 784.038 288.575 790.124 286.321L810.5 278.063L818.378 274.348C818.941 274.089 820.41 273.275 820.997 273.25C821.548 273.227 822.086 273.428 822.63 273.517C815.658 282.573 807.493 290.375 797.343 295.757C792.986 298.153 788.595 300.749 783.974 302.596C777.865 305.038 771.273 306.437 764.905 308.035L728.048 305.471L693.023 297.912L692.103 295.473C690.233 293.995 689.325 295.421 687.118 295.25L687.556 294.298L694.528 292.995Z"/>
	<path fill="#C74595" d="M723.363 260.378C729.812 256.73 735.488 252.128 741.439 247.75C754.424 238.198 767.661 233.055 783.5 230.342C795.652 228.261 807.903 228.847 820.147 229.377C831.869 230.969 843.594 232.879 854.953 236.25C860.851 238 866.745 239.976 871.937 243.34C870.241 244.286 868.11 244.28 866.205 244.446L853.505 245.474L823.493 248.521C803.271 251.147 783.29 256.07 763.817 262.043C739.703 269.441 715.426 278.618 694.528 292.995L687.556 294.298L687.118 295.25C689.325 295.421 690.233 293.995 692.103 295.473L693.023 297.912C688.968 299.401 685.743 301.639 682.612 304.561C681.692 305.42 680.469 306.969 679.41 307.549C677.51 308.188 676.82 309.789 674.857 310.191C674.218 309.569 674.361 309.871 674.139 309.205C673.764 308.082 673.251 307.028 672.759 305.953C672.972 305.052 673.147 304.439 673.679 303.665C674.315 302.738 675.037 301.944 675.277 300.813C675.443 300.028 675.512 298.202 675.861 297.527C676.993 295.344 677.773 295.73 677.933 293.049C680.244 288.683 683.994 284.251 686.828 280.166L695.23 270.986C699.813 267.855 703.8 263.373 707.689 259.428L708.735 258.908C713.509 259.459 718.556 260.422 723.363 260.378Z"/>
	<path fill="#163482" d="M708.735 258.908C713.509 259.459 718.556 260.422 723.363 260.378L697.841 283.448C694.321 286.95 690.626 290.39 687.556 294.298L687.118 295.25C689.325 295.421 690.233 293.995 692.103 295.473L693.023 297.912C688.968 299.401 685.743 301.639 682.612 304.561C681.692 305.42 680.469 306.969 679.41 307.549C677.51 308.188 676.82 309.789 674.857 310.191C674.218 309.569 674.361 309.871 674.139 309.205C673.764 308.082 673.251 307.028 672.759 305.953C672.972 305.052 673.147 304.439 673.679 303.665C674.315 302.738 675.037 301.944 675.277 300.813C675.443 300.028 675.512 298.202 675.861 297.527C676.993 295.344 677.773 295.73 677.933 293.049C680.244 288.683 683.994 284.251 686.828 280.166L695.23 270.986C699.813 267.855 703.8 263.373 707.689 259.428L708.735 258.908Z"/>
	<path fill="#F16A09" d="M712.032 63.3373C712.163 62.358 712.07 61.5144 712.75 60.7711C717.592 67.1444 720.94 74.6612 724.031 82C736.647 111.956 741.016 144.243 736.609 176.434C734.75 190.009 730.775 202.979 727.152 216.165L712.487 243.766C710.552 247.451 707.424 252.009 706.271 255.942L707.689 259.428C703.8 263.373 699.813 267.855 695.23 270.986L686.828 280.166L685.676 276.508C684.829 272.592 683.075 269.027 681.313 265.458C678.814 258.608 675.935 251.781 673.931 244.766C669.696 229.942 668.738 213.9 668.393 198.547C669.111 187.243 672.732 175.399 676.196 164.672C677.689 161.862 678.654 158.603 679.782 155.624L685.98 139.602C695.933 114.277 706.404 90.1353 712.032 63.3373Z"/>
	<path fill="#E8292D" d="M712.032 63.3373C712.163 62.358 712.07 61.5144 712.75 60.7711C717.592 67.1444 720.94 74.6612 724.031 82C736.647 111.956 741.016 144.243 736.609 176.434C734.75 190.009 730.775 202.979 727.152 216.165L712.487 243.766C710.552 247.451 707.424 252.009 706.271 255.942L707.689 259.428C703.8 263.373 699.813 267.855 695.23 270.986L686.828 280.166L685.676 276.508C689.298 272.654 691.407 264.564 693.34 259.639C699.644 243.578 705.933 227.717 710.265 210.978C721.098 169.109 725.042 126.266 717.026 83.5C715.868 77.3228 715.242 68.7758 712.032 63.3373Z"/>
	<path fill="#FEFEFE" d="M706.271 255.942L707.689 259.428C703.8 263.373 699.813 267.855 695.23 270.986L706.271 255.942Z"/>
	<path fill="#3B7C10" d="M727.152 216.165C732.003 211.688 735.775 205.565 740.191 200.612C748.732 191.032 758.458 182.347 768.338 174.172C810.177 139.554 867.516 128.619 920.539 133.579L925.31 133.789C909.597 141.15 895.268 151.686 881.986 162.789C858.728 182.23 837.84 204.751 820.147 229.377C807.903 228.847 795.652 228.261 783.5 230.342C767.661 233.055 754.424 238.198 741.439 247.75C735.488 252.128 729.812 256.73 723.363 260.378C718.556 260.422 713.509 259.459 708.735 258.908L707.689 259.428L706.271 255.942C707.424 252.009 710.552 247.451 712.487 243.766L727.152 216.165Z"/>
	<path fill="#81C60E" d="M727.152 216.165C732.003 211.688 735.775 205.565 740.191 200.612C748.732 191.032 758.458 182.347 768.338 174.172C810.177 139.554 867.516 128.619 920.539 133.579C919.988 134.125 919.506 134.64 918.75 134.902C915.186 136.133 910.561 136.305 906.769 137.076C899.691 138.516 892.543 140.42 885.647 142.574C866.283 148.625 847.321 156.789 829.466 166.41C799.92 182.331 773.017 201.634 748 223.952L720.202 248.831C716.416 252.18 712.851 255.974 708.735 258.908L707.689 259.428L706.271 255.942C707.424 252.009 710.552 247.451 712.487 243.766L727.152 216.165Z"/>
	<path fill="#C74595" d="M764.905 308.035C771.273 306.437 777.865 305.038 783.974 302.596C788.595 300.749 792.986 298.153 797.343 295.757L816.323 322.023L816.128 322.263C817.829 324.836 819.927 327.515 821.25 330.285L821.654 330.958L821.137 331.615C811.66 334.843 802.114 338.443 793.315 343.25L802.414 355.921L804.155 357.558C806.705 365.099 811.399 372.015 814.425 379.435L770.081 400.165L749.369 364.823L740.693 369.082C733.437 372.239 725.983 374.727 718.198 376.194C701.295 379.381 682.988 375.383 667.073 369.816C662.057 366.472 655.718 365.441 650.509 362.202L648.64 361.255L647.279 359.233C651.176 348.744 657.332 339.01 663.496 329.742C668.559 322.129 673.631 314.643 679.41 307.549C680.469 306.969 681.692 305.42 682.612 304.561C685.743 301.639 688.968 299.401 693.023 297.912L728.048 305.471L764.905 308.035ZM816.128 322.263L809.39 324.371L821.25 330.285C819.927 327.515 817.829 324.836 816.128 322.263Z"/>
	<path fill="#F6B826" d="M764.905 308.035C771.273 306.437 777.865 305.038 783.974 302.596C788.595 300.749 792.986 298.153 797.343 295.757L816.323 322.023L816.128 322.263L809.39 324.371C805.956 322.453 801.782 321.157 798.12 319.689C791.194 316.912 784.274 313.991 777.165 311.707C773.277 310.458 768.401 310.042 764.905 308.035Z"/>
	<path fill="#F0F9DA" d="M693.023 297.912L728.048 305.471L727.575 305.658C719.818 308.593 710.833 308.719 702.841 311.334C685.849 316.893 673.42 329.09 662.284 342.5C658.889 346.588 655.044 351.05 652.956 355.988L652.456 357.417C650.637 357.785 648.987 358.527 647.279 359.233C651.176 348.744 657.332 339.01 663.496 329.742C668.559 322.129 673.631 314.643 679.41 307.549C680.469 306.969 681.692 305.42 682.612 304.561C685.743 301.639 688.968 299.401 693.023 297.912Z"/>
	<path fill="#9E288A" d="M652.456 357.417C659.162 354.579 665.561 351.09 672.376 348.462C708.847 334.394 749.347 326.872 788.464 328.716L800.75 329.392C803.822 329.489 806.724 329.349 809.772 329.897C807.879 329.878 805.633 329.648 803.786 330.033C802.765 330.246 801.823 331.096 800.79 331.478C798.133 332.462 795.325 333.081 792.576 333.757C776.887 337.613 761.521 342.093 746.28 347.463C730.205 353.127 713.76 361.563 696.642 363.177C691.355 363.676 686.037 364.044 680.724 363.928L669.661 363.25L656.277 361.693C654.441 361.521 652.102 361.116 650.509 362.202L648.64 361.255L647.279 359.233C648.987 358.527 650.637 357.785 652.456 357.417Z"/>
	<path fill="#7C233C" d="M650.509 362.202C652.102 361.116 654.441 361.521 656.277 361.693L669.661 363.25L680.724 363.928C686.037 364.044 691.355 363.676 696.642 363.177C713.76 361.563 730.205 353.127 746.28 347.463C761.521 342.093 776.887 337.613 792.576 333.757C795.325 333.081 798.133 332.462 800.79 331.478C801.823 331.096 802.765 330.246 803.786 330.033C805.633 329.648 807.879 329.878 809.772 329.897C813.653 330.216 817.429 330.322 821.137 331.615C811.66 334.843 802.114 338.443 793.315 343.25L802.414 355.921L804.155 357.558C806.705 365.099 811.399 372.015 814.425 379.435L770.081 400.165L749.369 364.823L740.693 369.082C733.437 372.239 725.983 374.727 718.198 376.194C701.295 379.381 682.988 375.383 667.073 369.816C662.057 366.472 655.718 365.441 650.509 362.202Z"/>
	<path fill="#F69F0C" d="M781.499 349.318L793.315 343.25L802.414 355.921L804.155 357.558C806.705 365.099 811.399 372.015 814.425 379.435L770.081 400.165L749.369 364.823L781.499 349.318Z"/>
	<path fill="#FCE414" d="M781.499 349.318L793.315 343.25L802.414 355.921C801.782 355.952 801.302 355.97 800.692 355.765L789.75 352.282C786.95 351.462 783.955 350.948 781.499 349.318Z"/>
	<path fill="#F6B826" d="M176.762 587.909L222.27 609.926C228.471 612.967 235.524 617.315 242.101 619.261C244.572 631.735 251.581 644.389 256.717 656.016L258.587 657.609L279.222 664.39L287.923 669.8L272.198 681.202L264.987 687.028C263.438 688.225 261.988 688.988 260.9 690.657L261.522 691.822L284.952 694.105C287.517 698.15 290.915 704.113 294.506 707.225L294.519 707.292L311.786 726.199L312.947 726.757C316.522 727.114 320.174 726.901 323.768 727.077C336.934 727.723 349.422 728.91 362.377 725.288C368.654 723.533 373.815 721.602 379.408 718.25C381.761 716.84 383.88 715.178 386 713.445C390.85 709.48 394.353 704.663 398.389 699.966L398.967 699.299C421.95 709.247 444.365 719.423 469.066 724.534C473.898 725.534 478.719 726.788 483.656 727.13C486.32 730.671 487.935 734.867 490.914 738.159L490.963 805.646L490.98 852.239L452.786 847.754C419.641 842.334 386.792 831.566 356.495 817.203C305.25 792.908 262.282 755.679 229.567 709.545C222.127 699.052 214.853 688.357 208.785 676.996C199.014 658.703 191.599 639.152 184.634 619.653L183.959 618.505C183.067 611.813 180.427 604.031 178.336 597.602L176.762 587.909Z"/>
	<path fill="#EE6188" d="M258.587 657.609L279.222 664.39L287.923 669.8L272.198 681.202L258.587 657.609Z"/>
	<path fill="#BB8F21" d="M294.519 707.292L311.786 726.199L274.774 721.642L294.519 707.292Z"/>
	<path fill="#F16A09" d="M176.762 587.909L222.27 609.926C228.471 612.967 235.524 617.315 242.101 619.261C244.572 631.735 251.581 644.389 256.717 656.016C242.748 651.13 229.613 643.576 216.583 636.615L184.634 619.653L183.959 618.505C183.067 611.813 180.427 604.031 178.336 597.602L176.762 587.909Z"/>
	<path fill="#D9364F" d="M312.947 726.757C316.522 727.114 320.174 726.901 323.768 727.077C336.934 727.723 349.422 728.91 362.377 725.288C368.654 723.533 373.815 721.602 379.408 718.25C381.761 716.84 383.88 715.178 386 713.445C390.85 709.48 394.353 704.663 398.389 699.966L398.967 699.299C421.95 709.247 444.365 719.423 469.066 724.534C473.898 725.534 478.719 726.788 483.656 727.13C486.32 730.671 487.935 734.867 490.914 738.159L490.963 805.646C480.021 805.137 468.954 803.293 458.203 801.277C403.225 790.965 353.443 765.193 312.947 726.757Z"/>
	<path fill="#F69F0C" d="M300.499 416.35L381.448 536.395C379.128 541.175 378.9 546.74 379.088 551.987L378.932 554.841C384.569 563.681 391.357 571.45 396.41 580.75C402.843 592.59 407.121 605.855 412.949 618.049C415.483 623.349 417.895 628.836 422.092 633.055L421.529 635.693L424.339 648.13C425.45 648.803 426.788 649.278 427.352 650.461C426.193 651.319 425.305 651.795 423.947 652.28C421.041 654.254 418.015 656.123 415.521 658.618L402.332 667.214C405.851 669.413 409.705 670.834 413.118 673.197L398.967 699.299L398.389 699.966C394.353 704.663 390.85 709.48 386 713.445C383.88 715.178 381.761 716.84 379.408 718.25C373.815 721.602 368.654 723.533 362.377 725.288C349.422 728.91 336.934 727.723 323.768 727.077C320.174 726.901 316.522 727.114 312.947 726.757L311.786 726.199L294.519 707.292L294.506 707.225C290.915 704.113 287.517 698.15 284.952 694.105L261.522 691.822L260.9 690.657C261.988 688.988 263.438 688.225 264.987 687.028L272.198 681.202L287.923 669.8L279.222 664.39L258.587 657.609L256.717 656.016C251.581 644.389 244.572 631.735 242.101 619.261C235.524 617.315 228.471 612.967 222.27 609.926L176.762 587.909C176.55 587.523 176.425 587.075 176.128 586.75C174.645 585.128 148.242 574.014 144.676 572.444L144.054 572.514L143.591 570.601L170.704 563.166C173.815 563.113 176.378 562.962 179.374 562.011C182.292 560.782 185.654 560.437 188.757 559.837C200.666 557.532 212.814 556.769 224.839 555.287C242.669 552.979 262.663 553.69 280.123 558.196C279.843 553.274 278.703 548.436 278.03 543.557L276.106 521.547C275.794 513.947 276.427 506.731 277.031 499.184C279.283 471.046 286.501 441.045 300.499 416.35Z"/>
	<path fill="#521854" d="M326.105 578.689C323.003 568.294 319.905 556.765 320.732 545.853C325.09 555.055 328.762 564.567 334.599 572.981C350.112 595.341 372.36 608.756 395.5 622.003C404.052 626.899 412.431 631.848 421.529 635.693L424.339 648.13C415.067 644.822 405.648 643.265 395.872 642.284C375.522 640.242 354.976 641.518 335.288 647.274C330.057 648.804 324.633 650.429 319.711 652.805L287.923 669.8L279.222 664.39L258.587 657.609L256.717 656.016C251.581 644.389 244.572 631.735 242.101 619.261C248.674 621.777 256.481 624.706 262.535 628.253C275.92 632.684 290.312 635.876 304.444 636.455C322.2 637.184 340.352 633.953 358.002 632.198C373.277 630.68 388.183 630.564 403.506 631.563C395.771 626.16 387.491 622.214 378.97 618.225C372.684 613.422 365.29 609.861 358.785 605.25C347.319 597.122 336.811 587.776 326.105 578.689Z"/>
	<path fill="#D9364F" d="M242.101 619.261C248.674 621.777 256.481 624.706 262.535 628.253C264.135 634.388 267.099 639.859 269.827 645.544L279.222 664.39L258.587 657.609L256.717 656.016C251.581 644.389 244.572 631.735 242.101 619.261Z"/>
	<path fill="#F6B826" d="M320.732 545.853C319.475 539.111 318.744 532.528 318.972 525.65C319.067 522.806 319.306 519.245 320.96 516.854L321.503 516.101C324.156 515.948 327.017 517.423 329.454 518.418C342.458 523.727 354.364 531.383 364.857 540.726C369.709 545.047 373.683 551.094 378.932 554.841C384.569 563.681 391.357 571.45 396.41 580.75C402.843 592.59 407.121 605.855 412.949 618.049C415.483 623.349 417.895 628.836 422.092 633.055L421.529 635.693C412.431 631.848 404.052 626.899 395.5 622.003C372.36 608.756 350.112 595.341 334.599 572.981C328.762 564.567 325.09 555.055 320.732 545.853Z"/>
	<path fill="#FCE414" d="M224.839 555.287C242.669 552.979 262.663 553.69 280.123 558.196C291.684 560.906 303.44 565.734 313.727 571.635C317.803 573.88 321.859 576.855 326.105 578.689C336.811 587.776 347.319 597.122 358.785 605.25C365.29 609.861 372.684 613.422 378.97 618.225C373.582 619.452 364.652 615.244 359.25 613.79L336.078 607.822L281.873 596.049L220.598 582.807L192.374 578.266C176.843 575.679 160.478 572.09 144.676 572.444L144.054 572.514L143.591 570.601L170.704 563.166C173.815 563.113 176.378 562.962 179.374 562.011C182.292 560.782 185.654 560.437 188.757 559.837C200.666 557.532 212.814 556.769 224.839 555.287Z"/>
	<path fill="#FBED93" d="M224.839 555.287C242.669 552.979 262.663 553.69 280.123 558.196C291.684 560.906 303.44 565.734 313.727 571.635C313.806 572.16 314.052 572.737 314.217 573.244C311.785 573.95 305.524 571.061 302.886 570.233C291.446 566.643 279.603 563.957 267.75 562.163C245.6 558.809 223.441 559.212 201.155 560.457C193.887 560.863 186.648 561.93 179.374 562.011C182.292 560.782 185.654 560.437 188.757 559.837C200.666 557.532 212.814 556.769 224.839 555.287Z"/>
	<path fill="#EE6188" d="M300.499 416.35L381.448 536.395C379.128 541.175 378.9 546.74 379.088 551.987L378.932 554.841C373.683 551.094 369.709 545.047 364.857 540.726C354.364 531.383 342.458 523.727 329.454 518.418C327.017 517.423 324.156 515.948 321.503 516.101L320.96 516.854C319.306 519.245 319.067 522.806 318.972 525.65C318.744 532.528 319.475 539.111 320.732 545.853C319.905 556.765 323.003 568.294 326.105 578.689C321.859 576.855 317.803 573.88 313.727 571.635C303.44 565.734 291.684 560.906 280.123 558.196C279.843 553.274 278.703 548.436 278.03 543.557L276.106 521.547C275.794 513.947 276.427 506.731 277.031 499.184C279.283 471.046 286.501 441.045 300.499 416.35Z"/>
	<path fill="#FCE414" d="M287.923 669.8L319.711 652.805C324.633 650.429 330.057 648.804 335.288 647.274C354.976 641.518 375.522 640.242 395.872 642.284C405.648 643.265 415.067 644.822 424.339 648.13C425.45 648.803 426.788 649.278 427.352 650.461C426.193 651.319 425.305 651.795 423.947 652.28C421.041 654.254 418.015 656.123 415.521 658.618L402.332 667.214C405.851 669.413 409.705 670.834 413.118 673.197L398.967 699.299L398.389 699.966C394.353 704.663 390.85 709.48 386 713.445C383.88 715.178 381.761 716.84 379.408 718.25C373.815 721.602 368.654 723.533 362.377 725.288C349.422 728.91 336.934 727.723 323.768 727.077C320.174 726.901 316.522 727.114 312.947 726.757L311.786 726.199L294.519 707.292L294.506 707.225C290.915 704.113 287.517 698.15 284.952 694.105L261.522 691.822L260.9 690.657C261.988 688.988 263.438 688.225 264.987 687.028L272.198 681.202L287.923 669.8Z"/>
	<path fill="#F69F0C" d="M260.9 690.657L306.607 680.218C332.37 673.085 357.46 664.15 383.57 658.216C396.819 655.205 410.34 652.699 423.947 652.28C421.041 654.254 418.015 656.123 415.521 658.618L402.332 667.214L401.861 667.422C392.157 671.822 383.219 678.163 373.673 682.949C357.786 690.913 340.329 694.712 322.7 695.841C317.977 696.143 313.032 695.621 308.372 696.139L294.506 707.225C290.915 704.113 287.517 698.15 284.952 694.105L261.522 691.822L260.9 690.657Z"/>
	<path fill="#EE6188" d="M284.952 694.105L308.372 696.139L294.506 707.225C290.915 704.113 287.517 698.15 284.952 694.105Z"/>
	<path fill="#A61829" d="M308.372 696.139C313.032 695.621 317.977 696.143 322.7 695.841C340.329 694.712 357.786 690.913 373.673 682.949C383.219 678.163 392.157 671.822 401.861 667.422L402.332 667.214C405.851 669.413 409.705 670.834 413.118 673.197L398.967 699.299L398.389 699.966C394.353 704.663 390.85 709.48 386 713.445C383.88 715.178 381.761 716.84 379.408 718.25C373.815 721.602 368.654 723.533 362.377 725.288C349.422 728.91 336.934 727.723 323.768 727.077C320.174 726.901 316.522 727.114 312.947 726.757L311.786 726.199L294.519 707.292L294.506 707.225L308.372 696.139Z"/>
	<path fill="#149E91" d="M816.323 322.023L849.877 311.255C863.296 331.012 873.974 353.412 882.671 375.624C903.57 428.997 912.991 486.902 909.202 544.162C907.886 564.056 904.836 583.578 901.118 603.149C897.771 620.766 892.337 638.26 886.155 655.078C857.717 732.452 804.058 800.245 735.867 846.449C704.326 867.821 671.254 884.404 635.629 897.902C625.634 901.689 615.316 905.876 604.878 908.196L544.507 880.033L529.459 873.277C527.847 870.352 528.607 857.041 528.559 852.955L544.04 851.292L544.307 851.706C577.107 847.092 608.694 840.183 639.188 826.841C721.985 790.614 791.072 721.39 823.913 636.829C848.57 573.341 852.2 501.663 834.825 435.797C829.725 416.464 822.482 397.712 814.425 379.435C811.399 372.015 806.705 365.099 804.155 357.558L802.414 355.921L793.315 343.25C802.114 338.443 811.66 334.843 821.137 331.615L821.654 330.958L821.25 330.285C819.927 327.515 817.829 324.836 816.128 322.263L816.323 322.023ZM821.654 330.958L821.137 331.615C811.66 334.843 802.114 338.443 793.315 343.25L802.414 355.921L804.155 357.558C806.705 365.099 811.399 372.015 814.425 379.435C822.482 397.712 829.725 416.464 834.825 435.797C852.2 501.663 848.57 573.341 823.913 636.829C791.072 721.39 721.985 790.614 639.188 826.841C608.694 840.183 577.107 847.092 544.307 851.706L544.04 851.292L528.559 852.955C528.607 857.041 527.847 870.352 529.459 873.277L544.507 880.033L544.692 878.716C555.946 877.328 567.383 876.321 578.53 874.209C618.602 866.614 657.909 851.288 692.824 830.276C708.809 820.657 723.8 809.65 738.498 798.198C758.688 782.465 777.841 764.549 794.249 744.883C836.882 693.782 864.096 629.714 872.215 563.75C879.698 502.955 872.055 440.112 848.924 383.262C847.082 378.734 844.707 374.603 842.725 370.189L830.638 345.674C827.883 340.58 825.225 335.536 821.654 330.958Z"/>
	<path fill="#BB8F21" d="M804.155 357.558C817.35 362.756 829.618 368.25 843.517 371.462C833.496 373.295 823.889 375.53 814.425 379.435C811.399 372.015 806.705 365.099 804.155 357.558Z"/>
	<path fill="#F69F0C" d="M544.04 851.292L544.307 851.706L544.344 870.501C544.352 872.913 543.954 876.458 544.692 878.716L544.507 880.033L529.459 873.277C527.847 870.352 528.607 857.041 528.559 852.955L544.04 851.292Z"/>
	<path fill="#F6B826" d="M740.693 369.082L749.369 364.823L770.081 400.165L814.425 379.435C822.482 397.712 829.725 416.464 834.825 435.797C852.2 501.663 848.57 573.341 823.913 636.829C791.072 721.39 721.985 790.614 639.188 826.841C608.694 840.183 577.107 847.092 544.307 851.706L544.04 851.292L544.478 803.144L544.145 802.943L544.015 735.655C587.449 727.351 630.9 709.6 662.962 678.264C671.189 670.224 679.249 662.088 686.432 653.084C714.904 617.396 734.503 571.588 735.019 525.533C735.542 501.477 733.729 477.029 725.987 454.083L725.981 453.561C724.997 449.596 723.404 445.7 722.223 441.777C720.616 436.439 719.317 427.749 715.836 423.46C717.449 419.173 721.57 414.24 724.101 410.34L743.739 380.084L746.251 375.102C744.196 373.228 742.465 371.216 740.693 369.082Z"/>
	<path fill="#E8292D" d="M740.693 369.082L749.369 364.823L770.081 400.165C773.53 407.527 777.275 414.843 780.201 422.431C786.306 438.259 790.42 454.748 793.428 471.417C796.631 489.174 798.504 507.116 797.579 525.173C791.951 524.511 785.675 525.512 779.947 525.557L735.019 525.533C735.542 501.477 733.729 477.029 725.987 454.083L725.981 453.561C724.997 449.596 723.404 445.7 722.223 441.777C720.616 436.439 719.317 427.749 715.836 423.46C717.449 419.173 721.57 414.24 724.101 410.34L743.739 380.084L746.251 375.102C744.196 373.228 742.465 371.216 740.693 369.082Z"/>
	<path fill="#7C233C" d="M743.739 380.084C748.091 384.28 751.583 390.682 754.806 395.811C756.295 398.18 758.309 400.737 759.125 403.417L725.981 453.561C724.997 449.596 723.404 445.7 722.223 441.777C720.616 436.439 719.317 427.749 715.836 423.46C717.449 419.173 721.57 414.24 724.101 410.34L743.739 380.084Z"/>
	<path fill="#D9364F" d="M735.019 525.533L779.947 525.557C785.675 525.512 791.951 524.511 797.579 525.173C795.978 586.024 775.293 645.673 737.805 693.788C728.055 706.302 716.695 718.031 705.21 728.943C671.452 761.017 627.541 784.906 582.431 796.154C569.887 799.281 557.115 800.674 544.478 803.144L544.145 802.943L544.015 735.655C587.449 727.351 630.9 709.6 662.962 678.264C671.189 670.224 679.249 662.088 686.432 653.084C714.904 617.396 734.503 571.588 735.019 525.533Z"/>
	<path fill="#FEFEFE" d="M677.933 293.049C677.773 295.73 676.993 295.344 675.861 297.527C675.512 298.202 675.443 300.028 675.277 300.813C675.037 301.944 674.315 302.738 673.679 303.665C673.147 304.439 672.972 305.052 672.759 305.953C673.251 307.028 673.764 308.082 674.139 309.205C674.361 309.871 674.218 309.569 674.857 310.191C676.82 309.789 677.51 308.188 679.41 307.549C673.631 314.643 668.559 322.129 663.496 329.742C657.332 339.01 651.176 348.744 647.279 359.233L648.64 361.255L650.509 362.202C655.718 365.441 662.057 366.472 667.073 369.816C682.988 375.383 701.295 379.381 718.198 376.194C725.983 374.727 733.437 372.239 740.693 369.082C742.465 371.216 744.196 373.228 746.251 375.102L743.739 380.084L724.101 410.34C721.57 414.24 717.449 419.173 715.836 423.46C719.317 427.749 720.616 436.439 722.223 441.777C723.404 445.7 724.997 449.596 725.981 453.561L725.987 454.083C733.729 477.029 735.542 501.477 735.019 525.533C734.503 571.588 714.904 617.396 686.432 653.084C679.249 662.088 671.189 670.224 662.962 678.264C630.9 709.6 587.449 727.351 544.015 735.655L544.145 802.943L544.478 803.144L544.04 851.292L528.559 852.955C528.607 857.041 527.847 870.352 529.459 873.277L528.088 873.75L526.655 878.445C533.773 883.124 542.939 886.62 550.685 890.259L593.102 910.197C573.176 915.991 553.029 920.092 532.318 921.807C526.045 922.326 519.54 922.053 513.242 922.04C497.08 922.009 481.736 920.981 465.75 918.502C453.274 916.568 441.287 914.096 429.601 909.19L498.452 876.577L498.06 853.329L490.98 852.239L490.963 805.646L490.914 738.159C487.935 734.867 486.32 730.671 483.656 727.13C478.719 726.788 473.898 725.534 469.066 724.534C444.365 719.423 421.95 709.247 398.967 699.299L413.118 673.197C409.705 670.834 405.851 669.413 402.332 667.214L415.521 658.618C418.015 656.123 421.041 654.254 423.947 652.28C425.305 651.795 426.193 651.319 427.352 650.461C426.788 649.278 425.45 648.803 424.339 648.13L421.529 635.693L422.092 633.055C417.895 628.836 415.483 623.349 412.949 618.049C407.121 605.855 402.843 592.59 396.41 580.75C391.357 571.45 384.569 563.681 378.932 554.841L379.088 551.987C378.9 546.74 379.128 541.175 381.448 536.395L300.499 416.35L273.336 375.153L327.91 370.527L326.44 397.417L332.811 397.655L347.508 397.46C350.494 395.542 356.029 395.168 359.546 395.07C363.884 396.018 370.077 394.89 374.677 394.764C388.999 394.373 403.712 393.36 417.986 394.53C420.124 394.747 423.366 394.466 424.831 396.022L424.94 396.522L425.75 397.868C426.51 397.691 426.808 397.77 427.338 397.167L427.859 395.798C428.686 394.342 430.731 394.171 432.25 393.736C433.472 392.18 433.256 391.758 433.273 389.836L475.5 393.126C482.258 393.553 490.623 395.336 497.155 393.592L497.188 395.345C497.78 395.912 498.233 396.116 498.408 396.935L512.415 397.001C516.238 397.234 520.179 397.672 523.999 397.357L612.119 397.34L626.312 373.745L628.43 370.42L631.257 365.952C631.203 363.151 632.499 360.113 633.433 357.494C635.424 351.421 637.403 344.583 637.857 338.18C638.252 332.602 637.726 326.979 638.189 321.399L638.239 320.859L647.676 339.196L650.044 334.1C650.999 332.895 652.012 332.064 653.233 331.138C655.33 329.131 656.77 326.109 658.25 323.623C660.622 319.64 663.787 315.371 665.146 310.94L677.933 293.049Z"/>
	<path fill="#EE6188" d="M648.64 361.255L650.509 362.202C655.718 365.441 662.057 366.472 667.073 369.816L642.777 369.931L648.64 361.255Z"/>
	<path fill="#C74595" d="M381.448 536.395L418.001 593L428.277 608.833C430.328 611.975 432.778 615.05 434.351 618.452C430.79 616.95 428.166 613.285 425.398 610.64C420.22 605.696 414.564 600.934 410.423 595.035C407.248 590.513 405.087 585.35 402.699 580.397C398.51 571.706 393.139 564.52 386.147 557.851C384.075 555.875 381.676 553.136 379.088 551.987C378.9 546.74 379.128 541.175 381.448 536.395Z"/>
	<path fill="#14CAD9" d="M625.656 396.999L716.988 397.033C715.39 399.814 713.871 402.768 711.964 405.346C708.175 404.886 704.314 405.066 700.5 404.984L679.457 404.595L621.189 404.45L625.656 396.999Z"/>
	<path fill="#F16A09" d="M544.145 802.943L544.478 803.144L544.04 851.292L528.559 852.955L528.539 804.574L544.145 802.943Z"/>
	<path fill="#F16A09" d="M321.558 420.702C325.615 421.442 328.907 423.66 332.457 425.629C336.788 428.031 341.344 430.349 346.093 431.792C349.799 435.111 352.664 440.252 355.298 444.45L367.501 464.192C371.958 471.428 377.145 478.72 380.919 486.325L359.545 476.114C354.789 472.546 350.731 464.496 347.372 459.539L321.558 420.702Z"/>
	<path fill="#521854" d="M379.088 551.987C381.676 553.136 384.075 555.875 386.147 557.851C393.139 564.52 398.51 571.706 402.699 580.397C405.087 585.35 407.248 590.513 410.423 595.035C414.564 600.934 420.22 605.696 425.398 610.64C428.166 613.285 430.79 616.95 434.351 618.452L477.847 679.849C471.97 676.79 466.625 670.932 461.712 666.506L439.946 647.444C434.279 642.528 428.415 637.097 422.092 633.055C417.895 628.836 415.483 623.349 412.949 618.049C407.121 605.855 402.843 592.59 396.41 580.75C391.357 571.45 384.569 563.681 378.932 554.841L379.088 551.987Z"/>
	<path fill="#F69F0C" d="M621.189 404.45L679.457 404.595L700.5 404.984C704.314 405.066 708.175 404.886 711.964 405.346L700.927 422.452C698.347 426.389 695.958 430.415 692.874 433.988C687.355 434.138 681.12 436.513 675.708 437.807L656.25 441.976L597.56 450.947L621.189 404.45Z"/>
	<path fill="#C74595" d="M422.092 633.055C428.415 637.097 434.279 642.528 439.946 647.444L461.712 666.506C466.625 670.932 471.97 676.79 477.847 679.849L487.553 693.187C488.292 694.168 490.607 696.314 490.96 697.329C491.369 698.503 490.931 701.831 490.922 703.184L490.901 723.91L490.914 738.159C487.935 734.867 486.32 730.671 483.656 727.13C478.719 726.788 473.898 725.534 469.066 724.534C444.365 719.423 421.95 709.247 398.967 699.299L413.118 673.197C409.705 670.834 405.851 669.413 402.332 667.214L415.521 658.618C418.015 656.123 421.041 654.254 423.947 652.28C425.305 651.795 426.193 651.319 427.352 650.461C426.788 649.278 425.45 648.803 424.339 648.13L421.529 635.693L422.092 633.055Z"/>
	<path fill="#521854" d="M415.521 658.618C419.101 663.114 422.086 663.347 427.271 665.374C431.058 666.855 434.894 668.448 438.513 670.306C458.165 680.396 473.876 694.56 485.239 713.485C487.212 716.771 489.824 720.214 490.901 723.91L490.914 738.159C487.935 734.867 486.32 730.671 483.656 727.13C473.267 707.617 453.011 694.647 433.99 684.593C426.947 680.87 419.765 677.647 413.118 673.197C409.705 670.834 405.851 669.413 402.332 667.214L415.521 658.618Z"/>
	<path fill="#C74595" d="M413.118 673.197C419.765 677.647 426.947 680.87 433.99 684.593C453.011 694.647 473.267 707.617 483.656 727.13C478.719 726.788 473.898 725.534 469.066 724.534C444.365 719.423 421.95 709.247 398.967 699.299L413.118 673.197Z"/>
	<path fill="#14CAD9" d="M498.06 853.329L498.101 852.724C498.937 839.007 498.223 824.891 498.198 811.135L498.06 730.359L498.027 706.815C498.023 703.861 497.528 700.032 498.21 697.235L521.625 697.278L521.502 876.588C523.022 877.291 524.868 878.46 526.539 878.534L526.655 878.445C533.773 883.124 542.939 886.62 550.685 890.259L593.102 910.197C573.176 915.991 553.029 920.092 532.318 921.807C526.045 922.326 519.54 922.053 513.242 922.04C497.08 922.009 481.736 920.981 465.75 918.502C453.274 916.568 441.287 914.096 429.601 909.19L498.452 876.577L498.06 853.329Z"/>
	<defs>
		<linearGradient id="gradient_1" gradientUnits="userSpaceOnUse" x1="641.67035" y1="584.93085" x2="590.27167" y2="504.92224">
			<stop offset="0" stop-color="#005B9B"/>
			<stop offset="1" stop-color="#19C3C2"/>
		</linearGradient>
	</defs>
	<path fill="url(#gradient_1)" d="M597.56 450.947L656.25 441.976L675.708 437.807C681.12 436.513 687.355 434.138 692.874 433.988L686.879 442.587C682.986 452.106 675.43 461.078 669.671 469.637L638.575 515.995L576.518 607.658L550.173 646.527C549.914 646.101 549.464 645.744 549.396 645.25C549.337 644.82 549.884 643.217 550.008 642.716L552.43 633.966L564.701 590.68C566.247 584.936 568.104 579.378 569.314 573.54C562.386 577.132 551.447 582.685 543.616 582.59L563.75 528.027L569.429 512.583C570.602 509.425 571.89 505.604 574.129 503.05C574.662 499.421 577.484 494.717 578.99 491.227C584.858 477.627 590.406 463.942 597.56 450.947Z"/>
	<path fill="#14CAD9" d="M605.474 492.67L606.408 492.801C608.77 493.028 610.908 491.141 613.25 490.835C612.707 492.968 612.16 493.935 610.469 495.354C609.546 495.651 609.162 495.555 608.25 495.255L607.739 495.725C605.686 497.491 599.436 499.516 598.775 501.653C597.633 505.34 595.547 508.247 593.558 511.5L593.936 512.002C595.327 513.938 594.916 516.968 594.555 519.291C594.425 520.126 594.441 519.731 593.978 520.462C591.634 524.169 593.41 542.01 594.246 546.474C600.577 544.741 605.11 542.182 610.787 539.037C609.203 540.941 607.053 543.019 605.993 545.25L606.75 545.507L619.273 533.101C620.989 531.281 624.9 525.218 627.045 524.75C624.86 528.245 621.559 531.455 618.76 534.479C610.106 543.829 600.081 553.405 589.612 560.656C583.018 565.223 575.746 568.804 569.314 573.54C562.386 577.132 551.447 582.685 543.616 582.59L563.75 528.027L569.429 512.583C570.602 509.425 571.89 505.604 574.129 503.05C584.909 500.805 595.229 496.621 605.474 492.67Z"/>
	<path fill="#F16A09" d="M597.56 450.947L656.25 441.976L675.708 437.807C681.12 436.513 687.355 434.138 692.874 433.988L686.879 442.587C677.728 449.738 669.592 457.758 659.976 464.414C647.112 473.318 632.998 480.6 618.807 487.132C614.435 489.143 609.785 490.543 605.474 492.67C595.229 496.621 584.909 500.805 574.129 503.05C574.662 499.421 577.484 494.717 578.99 491.227C584.858 477.627 590.406 463.942 597.56 450.947Z"/>
	<path fill="#521854" d="M715.836 423.46C719.317 427.749 720.616 436.439 722.223 441.777C723.404 445.7 724.997 449.596 725.981 453.561L725.987 454.083C733.729 477.029 735.542 501.477 735.019 525.533L694.385 525.48C689.721 525.48 682.314 526.443 678.14 524.937C671.902 532.487 666.756 541.372 661.262 549.491L629.383 596.504L575.157 677.14L548.529 715.72C546.864 718.269 545.084 720.982 544.455 724L544.324 724.613C543.653 728.119 543.981 732.084 544.015 735.655L544.145 802.943L528.539 804.574L529.058 737L529.014 707.867C529.011 705.709 528.454 700.831 529.076 698.967C529.687 697.138 531.995 694.586 533.161 693.026L542.076 680.729L570.314 639.567L715.836 423.46Z"/>
	<path fill="#EE6188" d="M678.14 524.937L725.987 454.083C733.729 477.029 735.542 501.477 735.019 525.533L694.385 525.48C689.721 525.48 682.314 526.443 678.14 524.937Z"/>
	<path fill="#0798D4" d="M677.933 293.049C677.773 295.73 676.993 295.344 675.861 297.527C675.512 298.202 675.443 300.028 675.277 300.813C675.037 301.944 674.315 302.738 673.679 303.665C673.147 304.439 672.972 305.052 672.759 305.953C673.251 307.028 673.764 308.082 674.139 309.205C674.361 309.871 674.218 309.569 674.857 310.191C676.82 309.789 677.51 308.188 679.41 307.549C673.631 314.643 668.559 322.129 663.496 329.742C657.332 339.01 651.176 348.744 647.279 359.233L648.64 361.255L642.777 369.931L625.656 396.999L621.189 404.45L597.56 450.947C590.406 463.942 584.858 477.627 578.99 491.227C577.484 494.717 574.662 499.421 574.129 503.05C571.89 505.604 570.602 509.425 569.429 512.583L563.75 528.027L543.616 582.59C551.447 582.685 562.386 577.132 569.314 573.54C568.104 579.378 566.247 584.936 564.701 590.68L552.43 633.966L550.008 642.716C549.884 643.217 549.337 644.82 549.396 645.25C549.464 645.744 549.914 646.101 550.173 646.527C547.326 652.381 542.593 657.897 538.793 663.203C532.804 671.563 527.321 679.871 522.545 688.992L498.132 688.767C490.753 672.307 479.028 656.869 469.049 641.883L413.111 557.526C413.574 557.126 413.944 556.581 414.5 556.326C415.071 556.065 419.007 556.78 419.898 556.822C421.867 556.914 423.838 556.613 425.779 556.315C428.365 561.101 432.987 571.663 438.677 573.339C440.523 573.883 443.767 573.007 445.337 572.001C447.651 570.518 448.307 567.95 448.952 565.449L449.25 564.473C452.61 565.384 455.992 568.538 458.933 570.395C462.267 572.5 465.753 574.329 469.302 576.042C485.056 583.648 502.027 587.405 519.544 587.029C524.626 586.921 529.706 585.884 534.775 586.029L558.421 507.357L560.161 503.925L581.254 453.93L607.426 404.833L612.119 397.34L626.312 373.745L628.43 370.42L631.257 365.952C631.203 363.151 632.499 360.113 633.433 357.494C635.424 351.421 637.403 344.583 637.857 338.18C638.252 332.602 637.726 326.979 638.189 321.399L638.239 320.859L647.676 339.196L650.044 334.1C650.999 332.895 652.012 332.064 653.233 331.138C655.33 329.131 656.77 326.109 658.25 323.623C660.622 319.64 663.787 315.371 665.146 310.94L677.933 293.049Z"/>
	<path fill="#FEFEFE" d="M450.226 579.992C452.21 579.9 454.377 580.016 455.985 581.351C457.627 582.713 458.156 584.733 458.397 586.75C457.747 588.757 456.777 589.949 455.369 591.496C453.107 591.596 450.878 591.83 449.089 590.185C447.21 588.458 447.024 586.413 447.026 584C447.746 582.199 448.807 581.278 450.226 579.992Z"/>
	<defs>
		<linearGradient id="gradient_2" gradientUnits="userSpaceOnUse" x1="549.93134" y1="464.25787" x2="649.48157" y2="479.53571">
			<stop offset="0" stop-color="#006ED7"/>
			<stop offset="1" stop-color="#234A98"/>
		</linearGradient>
	</defs>
	<path fill="url(#gradient_2)" d="M677.933 293.049C677.773 295.73 676.993 295.344 675.861 297.527C675.512 298.202 675.443 300.028 675.277 300.813C675.037 301.944 674.315 302.738 673.679 303.665C673.147 304.439 672.972 305.052 672.759 305.953C673.251 307.028 673.764 308.082 674.139 309.205C674.361 309.871 674.218 309.569 674.857 310.191C676.82 309.789 677.51 308.188 679.41 307.549C673.631 314.643 668.559 322.129 663.496 329.742C657.332 339.01 651.176 348.744 647.279 359.233L648.64 361.255L642.777 369.931L625.656 396.999L621.189 404.45L597.56 450.947C590.406 463.942 584.858 477.627 578.99 491.227C577.484 494.717 574.662 499.421 574.129 503.05C571.89 505.604 570.602 509.425 569.429 512.583L563.75 528.027L543.616 582.59L519.221 658.14C519.581 652.857 520.945 647.62 522.101 642.467L526.511 622.654L534.775 586.029L558.421 507.357L560.161 503.925L581.254 453.93L607.426 404.833L612.119 397.34L626.312 373.745L628.43 370.42L631.257 365.952C631.203 363.151 632.499 360.113 633.433 357.494C635.424 351.421 637.403 344.583 637.857 338.18C638.252 332.602 637.726 326.979 638.189 321.399L638.239 320.859L647.676 339.196L650.044 334.1C650.999 332.895 652.012 332.064 653.233 331.138C655.33 329.131 656.77 326.109 658.25 323.623C660.622 319.64 663.787 315.371 665.146 310.94L677.933 293.049Z"/>
	<path fill="#F0F9DA" d="M633.433 357.494C635.424 351.421 637.403 344.583 637.857 338.18C638.252 332.602 637.726 326.979 638.189 321.399L638.239 320.859L647.676 339.196L650.044 334.1C650.999 332.895 652.012 332.064 653.233 331.138L631.257 365.952C631.203 363.151 632.499 360.113 633.433 357.494Z"/>
	<path fill="#C74595" d="M678.14 524.937C682.314 526.443 689.721 525.48 694.385 525.48L735.019 525.533C734.503 571.588 714.904 617.396 686.432 653.084C679.249 662.088 671.189 670.224 662.962 678.264C630.9 709.6 587.449 727.351 544.015 735.655C543.981 732.084 543.653 728.119 544.324 724.613L544.455 724C545.084 720.982 546.864 718.269 548.529 715.72L575.157 677.14L629.383 596.504L661.262 549.491C666.756 541.372 671.902 532.487 678.14 524.937Z"/>
	<path fill="#14CAD9" d="M433.273 389.836L475.5 393.126C482.258 393.553 490.623 395.336 497.155 393.592L497.188 395.345C497.78 395.912 498.233 396.116 498.408 396.935L512.415 397.001C516.238 397.234 520.179 397.672 523.999 397.357L612.119 397.34L607.426 404.833L581.254 453.93L560.161 503.925L558.421 507.357L534.775 586.029C529.706 585.884 524.626 586.921 519.544 587.029C502.027 587.405 485.056 583.648 469.302 576.042C465.753 574.329 462.267 572.5 458.933 570.395C455.992 568.538 452.61 565.384 449.25 564.473L448.952 565.449C448.307 567.95 447.651 570.518 445.337 572.001C443.767 573.007 440.523 573.883 438.677 573.339C432.987 571.663 428.365 561.101 425.779 556.315C423.838 556.613 421.867 556.914 419.898 556.822C419.007 556.78 415.071 556.065 414.5 556.326C413.944 556.581 413.574 557.126 413.111 557.526C410.346 554.292 408.044 549.989 405.676 546.399L389.939 522.612L369.873 492.175C366.414 486.938 362.386 481.705 359.545 476.114L380.919 486.325C377.145 478.72 371.958 471.428 367.501 464.192L355.298 444.45C352.664 440.252 349.799 435.111 346.093 431.792C341.344 430.349 336.788 428.031 332.457 425.629C328.907 423.66 325.615 421.442 321.558 420.702C317.324 415.834 313.874 410.489 310.384 405.083L304.519 397.032L326.44 397.417L332.811 397.655L347.508 397.46C350.494 395.542 356.029 395.168 359.546 395.07C363.884 396.018 370.077 394.89 374.677 394.764C388.999 394.373 403.712 393.36 417.986 394.53C420.124 394.747 423.366 394.466 424.831 396.022L424.94 396.522L425.75 397.868C426.51 397.691 426.808 397.77 427.338 397.167L427.859 395.798C428.686 394.342 430.731 394.171 432.25 393.736C433.472 392.18 433.256 391.758 433.273 389.836Z"/>
	<path fill="#FEFEFE" d="M425.779 556.315L424.936 554.423C423.892 552.029 422.54 548.587 423.68 545.983C424.507 544.096 426.106 542.816 428.045 542.197C429.769 541.648 432.532 541.549 434.124 542.555C440.465 546.561 443.141 557.573 447.965 563.361C448.57 564.087 448.727 564.548 448.952 565.449C448.307 567.95 447.651 570.518 445.337 572.001C443.767 573.007 440.523 573.883 438.677 573.339C432.987 571.663 428.365 561.101 425.779 556.315Z"/>
	<path fill="#FEFEFE" d="M346.093 431.792C345.614 430.077 345.25 428.356 345.475 426.565C345.779 424.135 347.708 421.695 349.612 420.25C351.052 419.156 352.856 418.805 354.615 419.154C359.548 420.135 361.865 424.459 364.545 428.289L403.035 493.269C408.588 505.78 417.576 515.818 422.545 528.716C421.831 530.935 421.146 532.912 419.342 534.497C417.463 536.148 415.614 536.121 413.25 535.867C411.84 535.15 410.669 534.437 409.639 533.21C406.372 529.312 404.174 524.374 401.671 519.959C395.45 508.989 389.191 496.692 381.323 486.82L380.919 486.325C377.145 478.72 371.958 471.428 367.501 464.192L355.298 444.45C352.664 440.252 349.799 435.111 346.093 431.792Z"/>
	<defs>
		<linearGradient id="gradient_3" gradientUnits="userSpaceOnUse" x1="470.89597" y1="420.27405" x2="479.39001" y2="511.01028">
			<stop offset="0" stop-color="#F73817"/>
			<stop offset="1" stop-color="#FA891E"/>
		</linearGradient>
	</defs>
	<path fill="url(#gradient_3)" d="M364.545 428.289C374.787 430.725 384.692 434.487 395.025 436.761C436.94 445.986 479.944 452.285 522.866 453.857L581.254 453.93L560.161 503.925L558.421 507.357C532.531 513.257 503.652 515.593 477.241 512.102C451.68 509.386 426.816 503.022 403.035 493.269L364.545 428.289Z"/>
	<path fill="#F69F0C" d="M477.241 512.102L479.349 511.675L479.998 511.498C480.736 511.325 481.08 511.348 481.674 510.835L482.161 510.396C483.076 509.689 483.717 509.417 484.85 509.507C485.938 508.682 486.737 508.699 488.089 508.699L490.327 508.711C492.021 508.65 493.075 509.346 494.505 508.403C495.518 508.527 495.127 508.6 495.973 508.311C496.944 507.979 497.728 507.767 498.766 507.767C500.368 507.767 502.015 507.945 503.575 507.538C504.702 507.245 505.513 507.252 506.663 507.315C507.545 507.363 507.598 506.82 508.333 506.64C508.867 506.51 510.051 507.184 510.556 507.029C512.297 506.492 511.614 506.129 513.85 506.507L514.661 505.883C516.248 505.685 517.927 505.232 519.527 505.347L520.746 505.52C522.018 505.44 522.849 505.202 524.171 505.34C524.873 505.413 525.088 505.097 525.673 504.734L527.023 504.785L528.673 504.711C529.941 504.758 530.328 504.962 531.583 504.588C535.067 503.55 539.487 504.58 542.96 503.673C544.508 503.269 546.074 503.584 547.476 503.285C548.939 502.973 549.514 502.459 551.116 502.811L552.028 503.026C553.347 501.609 554.347 503.035 555.999 501.854C556.761 501.91 557.461 501.984 558.221 501.855L558.647 501.76L560.161 503.925L558.421 507.357C532.531 513.257 503.652 515.593 477.241 512.102Z"/>
	<path fill="#F69F0C" d="M433.273 389.836L475.5 393.126C482.258 393.553 490.623 395.336 497.155 393.592L497.188 395.345C497.78 395.912 498.233 396.116 498.408 396.935L512.415 397.001C516.238 397.234 520.179 397.672 523.999 397.357L612.119 397.34L607.426 404.833L581.254 453.93L522.866 453.857C479.944 452.285 436.94 445.986 395.025 436.761C384.692 434.487 374.787 430.725 364.545 428.289C361.865 424.459 359.548 420.135 354.615 419.154C352.856 418.805 351.052 419.156 349.612 420.25C347.708 421.695 345.779 424.135 345.475 426.565C345.25 428.356 345.614 430.077 346.093 431.792C341.344 430.349 336.788 428.031 332.457 425.629C328.907 423.66 325.615 421.442 321.558 420.702C317.324 415.834 313.874 410.489 310.384 405.083L304.519 397.032L326.44 397.417L332.811 397.655L347.508 397.46C350.494 395.542 356.029 395.168 359.546 395.07C363.884 396.018 370.077 394.89 374.677 394.764C388.999 394.373 403.712 393.36 417.986 394.53C420.124 394.747 423.366 394.466 424.831 396.022L424.94 396.522L425.75 397.868C426.51 397.691 426.808 397.77 427.338 397.167L427.859 395.798C428.686 394.342 430.731 394.171 432.25 393.736C433.472 392.18 433.256 391.758 433.273 389.836Z"/>
	<path fill="#14CAD9" d="M433.273 389.836L475.5 393.126C482.258 393.553 490.623 395.336 497.155 393.592L497.188 395.345C497.78 395.912 498.233 396.116 498.408 396.935L512.415 397.001C516.238 397.234 520.179 397.672 523.999 397.357L612.119 397.34L607.426 404.833L544.664 404.63L422.203 404.54L350.807 404.517C337.405 404.5 323.714 403.58 310.384 405.083L304.519 397.032L326.44 397.417L332.811 397.655L347.508 397.46C350.494 395.542 356.029 395.168 359.546 395.07C363.884 396.018 370.077 394.89 374.677 394.764C388.999 394.373 403.712 393.36 417.986 394.53C420.124 394.747 423.366 394.466 424.831 396.022L424.94 396.522L425.75 397.868C426.51 397.691 426.808 397.77 427.338 397.167L427.859 395.798C428.686 394.342 430.731 394.171 432.25 393.736C433.472 392.18 433.256 391.758 433.273 389.836Z"/>
	<path fill="#C9BC05" d="M359.546 395.07C363.884 396.018 370.077 394.89 374.677 394.764C388.999 394.373 403.712 393.36 417.986 394.53C420.124 394.747 423.366 394.466 424.831 396.022L424.94 396.522L347.508 397.46C350.494 395.542 356.029 395.168 359.546 395.07Z"/>
	<path fill="#FCE414" d="M433.273 389.836L475.5 393.126C482.258 393.553 490.623 395.336 497.155 393.592L497.188 395.345C497.78 395.912 498.233 396.116 498.408 396.935L456.05 396.819L443.75 396.555C441.817 396.433 439.945 396.036 437.997 396.063C434.473 396.112 430.838 396.729 427.338 397.167L427.859 395.798C428.686 394.342 430.731 394.171 432.25 393.736C433.472 392.18 433.256 391.758 433.273 389.836Z"/>
	<path fill="#149E91" d="M334.491 877.617C321.824 871.52 309.573 864.192 297.629 856.781C252.586 828.832 212.3 793.442 181.238 750.261C170.079 734.748 159.43 718.275 150.66 701.284C111.25 624.935 98.6037 535.063 112.495 450.5C123.937 380.847 156.766 313.883 202.877 260.626C225 235.074 250.006 213.035 277.479 193.428C291.803 183.206 306.977 174.353 322.582 166.249C397.773 127.201 483.67 112.32 567.457 126.343C571.383 131.535 578.514 135.66 583.542 139.998L606.905 161.442C608.086 163.291 608.056 166.165 607.968 168.318L607.502 197.51C606.698 204.929 605.88 212.622 606.109 220.094C606.398 229.559 607.988 238.773 609.851 248.03C610.993 252.671 612.281 257.396 612.756 262.166C613.16 265.139 615.252 267.497 616.95 269.876L623.372 279.25C625.493 282.634 627.385 286.315 629.066 289.935C631.888 296.008 634.006 302.477 635.502 309C636.399 312.908 636.856 317.092 638.239 320.859L638.189 321.399C637.726 326.979 638.252 332.602 637.857 338.18C637.403 344.583 635.424 351.421 633.433 357.494C632.499 360.113 631.203 363.151 631.257 365.952L628.43 370.42L626.312 373.745L612.119 397.34L523.999 397.357C520.179 397.672 516.238 397.234 512.415 397.001L498.408 396.935C498.233 396.116 497.78 395.912 497.188 395.345L497.155 393.592C490.623 395.336 482.258 393.553 475.5 393.126L433.273 389.836C433.256 391.758 433.472 392.18 432.25 393.736C430.731 394.171 428.686 394.342 427.859 395.798L427.338 397.167C426.808 397.77 426.51 397.691 425.75 397.868L424.94 396.522L424.831 396.022C423.366 394.466 420.124 394.747 417.986 394.53C403.712 393.36 388.999 394.373 374.677 394.764C370.077 394.89 363.884 396.018 359.546 395.07C356.029 395.168 350.494 395.542 347.508 397.46L332.811 397.655L326.44 397.417L327.91 370.527L273.336 375.153L300.499 416.35C286.501 441.045 279.283 471.046 277.031 499.184C276.427 506.731 275.794 513.947 276.106 521.547L278.03 543.557C278.703 548.436 279.843 553.274 280.123 558.196C262.663 553.69 242.669 552.979 224.839 555.287C212.814 556.769 200.666 557.532 188.757 559.837C185.654 560.437 182.292 560.782 179.374 562.011C176.378 562.962 173.815 563.113 170.704 563.166L143.591 570.601L144.054 572.514C157.885 665.059 209.408 750.749 284.595 806.379C333.615 842.648 391.816 867.015 452.164 875.922C460.943 877.218 469.837 878.645 478.701 879.151L478.114 879.376L423.147 905.281C401.546 902.054 380.649 895.019 360.213 887.488L344.938 881.591C341.831 880.282 337.837 877.547 334.491 877.617ZM143.591 570.601L170.704 563.166C169.028 554.247 168.631 544.476 168.236 535.403C166.462 494.716 171.366 453.64 183.958 414.85C211.43 330.22 272.634 259.652 351.877 219.489C430.498 179.642 523.334 169.902 607.502 197.51L607.968 168.318C592.28 164.305 577.048 160.16 560.991 157.686C488.607 146.53 415.49 158.569 349.389 189.773C337.748 195.268 326.339 201.716 315.256 208.275C297.857 218.571 281.504 230.892 266.256 244.138C209.594 293.36 169.261 358.527 150.635 431.29C145.781 450.252 142.199 470.096 140.766 489.627C139.559 506.058 139.864 522.454 140.49 538.898C140.877 549.058 141.083 560.796 143.591 570.601Z"/>
	<path fill="#F6B826" d="M170.704 563.166C169.028 554.247 168.631 544.476 168.236 535.403C166.462 494.716 171.366 453.64 183.958 414.85C211.43 330.22 272.634 259.652 351.877 219.489C430.498 179.642 523.334 169.902 607.502 197.51C606.698 204.929 605.88 212.622 606.109 220.094C606.398 229.559 607.988 238.773 609.851 248.03C604.263 245.564 598.055 243.405 592.078 242.181C590.278 241.59 588.694 239.89 587.263 238.642L577.46 230.124C568.486 222.649 558.574 215.926 549.212 208.922L554.641 222.602L559.181 239.748C556.018 238.831 552.449 238.722 549.17 238.42C533.241 236.585 516.614 235.357 500.582 235.936C438.072 238.191 376.14 260.412 327.079 299.27C271.121 343.589 231.691 412.507 223.572 483.641C220.845 507.533 221.013 531.501 224.839 555.287C212.814 556.769 200.666 557.532 188.757 559.837C185.654 560.437 182.292 560.782 179.374 562.011C176.378 562.962 173.815 563.113 170.704 563.166Z"/>
	<path fill="#D9364F" d="M554.641 222.602L549.212 208.922C558.574 215.926 568.486 222.649 577.46 230.124L587.263 238.642C588.694 239.89 590.278 241.59 592.078 242.181C598.055 243.405 604.263 245.564 609.851 248.03C610.993 252.671 612.281 257.396 612.756 262.166C613.16 265.139 615.252 267.497 616.95 269.876L623.372 279.25C625.493 282.634 627.385 286.315 629.066 289.935C631.888 296.008 634.006 302.477 635.502 309C636.399 312.908 636.856 317.092 638.239 320.859L638.189 321.399C637.726 326.979 638.252 332.602 637.857 338.18C637.403 344.583 635.424 351.421 633.433 357.494C632.499 360.113 631.203 363.151 631.257 365.952L628.43 370.42L626.312 373.745L612.119 397.34L523.999 397.357C520.179 397.672 516.238 397.234 512.415 397.001L498.408 396.935C498.233 396.116 497.78 395.912 497.188 395.345L497.155 393.592C490.623 395.336 482.258 393.553 475.5 393.126L433.273 389.836C433.256 391.758 433.472 392.18 432.25 393.736C430.731 394.171 428.686 394.342 427.859 395.798L427.338 397.167C426.808 397.77 426.51 397.691 425.75 397.868L424.94 396.522L424.831 396.022C423.366 394.466 420.124 394.747 417.986 394.53C403.712 393.36 388.999 394.373 374.677 394.764C370.077 394.89 363.884 396.018 359.546 395.07C356.029 395.168 350.494 395.542 347.508 397.46L332.811 397.655L326.44 397.417L327.91 370.527L273.336 375.153L300.499 416.35C286.501 441.045 279.283 471.046 277.031 499.184C276.427 506.731 275.794 513.947 276.106 521.547L278.03 543.557C278.703 548.436 279.843 553.274 280.123 558.196C262.663 553.69 242.669 552.979 224.839 555.287C221.013 531.501 220.845 507.533 223.572 483.641C231.691 412.507 271.121 343.589 327.079 299.27C376.14 260.412 438.072 238.191 500.582 235.936C516.614 235.357 533.241 236.585 549.17 238.42C552.449 238.722 556.018 238.831 559.181 239.748L554.641 222.602Z"/>
	<path fill="#9E288A" d="M554.641 222.602L549.212 208.922C558.574 215.926 568.486 222.649 577.46 230.124L587.263 238.642C588.694 239.89 590.278 241.59 592.078 242.181C598.055 243.405 604.263 245.564 609.851 248.03C610.993 252.671 612.281 257.396 612.756 262.166C613.16 265.139 615.252 267.497 616.95 269.876L623.372 279.25C625.493 282.634 627.385 286.315 629.066 289.935C631.888 296.008 634.006 302.477 635.502 309C636.399 312.908 636.856 317.092 638.239 320.859L638.189 321.399C637.726 326.979 638.252 332.602 637.857 338.18C637.403 344.583 635.424 351.421 633.433 357.494C632.499 360.113 631.203 363.151 631.257 365.952L628.43 370.42L626.312 373.745L612.119 397.34L523.999 397.357L523.83 377.25C523.559 373.316 523.848 369.351 523.296 365.426C521.17 350.315 512.932 335.527 504.269 323.252C506.06 319.757 507.362 316.049 509.606 312.796C514.742 305.352 521.223 301.598 530 299.856C535.173 298.83 543.018 298.534 548.181 299.665C550.14 300.094 552.187 300.014 554.186 300.034C547.791 283.082 547.922 264.235 548.035 246.402C548.03 243.772 548.713 241.018 549.17 238.42C552.449 238.722 556.018 238.831 559.181 239.748L554.641 222.602Z"/>
	<path fill="#521854" d="M549.17 238.42C552.449 238.722 556.018 238.831 559.181 239.748L561.832 252.823L562.053 253.378C565.496 262.206 566.474 271.994 569.853 280.953C578.359 303.505 591.459 325.895 606.459 344.774L621.449 362.853C623.701 365.429 626.251 367.795 628.43 370.42L626.312 373.745L617.225 370.641C615.122 369.208 612.701 368.195 610.523 366.844C605.986 364.03 601.583 360.807 597.313 357.603C578.525 343.506 561.832 322.321 554.186 300.034C547.791 283.082 547.922 264.235 548.035 246.402C548.03 243.772 548.713 241.018 549.17 238.42Z"/>
	<path fill="#F16A09" d="M549.17 238.42C552.449 238.722 556.018 238.831 559.181 239.748L561.832 252.823L560.928 252.453L548.035 246.402C548.03 243.772 548.713 241.018 549.17 238.42Z"/>
	<path fill="#C74595" d="M554.641 222.602L549.212 208.922C558.574 215.926 568.486 222.649 577.46 230.124L587.263 238.642C588.694 239.89 590.278 241.59 592.078 242.181C598.055 243.405 604.263 245.564 609.851 248.03C610.993 252.671 612.281 257.396 612.756 262.166C613.16 265.139 615.252 267.497 616.95 269.876L623.372 279.25C625.493 282.634 627.385 286.315 629.066 289.935C631.888 296.008 634.006 302.477 635.502 309C636.399 312.908 636.856 317.092 638.239 320.859L638.189 321.399C637.726 326.979 638.252 332.602 637.857 338.18C637.403 344.583 635.424 351.421 633.433 357.494L608.843 305.878L598.064 286.11L562.882 232.423L557.914 225.5C557.49 224.944 556.56 223.406 556 223.049C555.598 222.793 555.094 222.751 554.641 222.602Z"/>
	<path fill="#F69F0C" d="M592.078 242.181C598.055 243.405 604.263 245.564 609.851 248.03C610.993 252.671 612.281 257.396 612.756 262.166L612.394 262.609C610.347 262.269 594.244 245.178 592.078 242.181Z"/>
	<path fill="#EE6188" d="M504.269 323.252C506.06 319.757 507.362 316.049 509.606 312.796C514.742 305.352 521.223 301.598 530 299.856C535.173 298.83 543.018 298.534 548.181 299.665C550.14 300.094 552.187 300.014 554.186 300.034C561.832 322.321 578.525 343.506 597.313 357.603C601.583 360.807 605.986 364.03 610.523 366.844C612.701 368.195 615.122 369.208 617.225 370.641L626.312 373.745L612.119 397.34L523.999 397.357L523.83 377.25C523.559 373.316 523.848 369.351 523.296 365.426C521.17 350.315 512.932 335.527 504.269 323.252Z"/>
	<path fill="#FEFEFE" d="M617.225 370.641L626.312 373.745L612.119 397.34L523.999 397.357L523.83 377.25L523.931 370.991L582.246 370.997L603.171 371.213C607.791 371.238 612.664 371.384 617.225 370.641Z"/>
	<path fill="#FBED93" d="M327.91 370.527L327.922 369.669C328.027 366.024 329.192 362.096 330.185 358.614C335.249 340.861 345.636 324.508 359.029 311.846C378.738 293.211 403.73 284.105 430.732 285.066C450.912 285.784 471.036 293.723 486.799 306.247C493.133 311.279 498.767 317.339 504.269 323.252C512.932 335.527 521.17 350.315 523.296 365.426C523.848 369.351 523.559 373.316 523.83 377.25L523.999 397.357C520.179 397.672 516.238 397.234 512.415 397.001L498.408 396.935C498.233 396.116 497.78 395.912 497.188 395.345L497.155 393.592C490.623 395.336 482.258 393.553 475.5 393.126L433.273 389.836C433.256 391.758 433.472 392.18 432.25 393.736C430.731 394.171 428.686 394.342 427.859 395.798L427.338 397.167C426.808 397.77 426.51 397.691 425.75 397.868L424.94 396.522L424.831 396.022C423.366 394.466 420.124 394.747 417.986 394.53C403.712 393.36 388.999 394.373 374.677 394.764C370.077 394.89 363.884 396.018 359.546 395.07C356.029 395.168 350.494 395.542 347.508 397.46L332.811 397.655L326.44 397.417L327.91 370.527Z"/>
	<path fill="#BB8F21" d="M375.14 336.43C375.403 334.627 375.633 332.912 376.564 331.31C377.978 328.878 380.33 326.85 382.418 324.999C388.846 319.301 397.333 313.608 405.761 311.479L406.434 311.32C410.709 310.284 414.794 309.918 418.8 312.023C421.922 313.663 422.911 316.385 423.903 319.578C422.746 319.001 421.653 318.42 420.582 317.694C416.344 314.82 412.156 314.444 407.201 315.437C398.673 317.147 389.064 322.785 382.906 328.911C380.596 331.209 378.14 335.183 375.14 336.43Z"/>
	<path fill="#BB8F21" d="M427.465 322.111C427.445 318.812 428.106 316.106 430.569 313.75C433.524 310.924 437.535 310.144 441.5 310.374C452.696 311.022 466.595 319.468 473.613 327.915C475.459 330.137 477.266 332.834 477.624 335.754L477.369 335.753C474.932 335.247 473.898 332.77 472.394 330.891C464.525 321.066 449.74 315.536 437.646 314.261C433.537 315.863 431.415 317.777 429.019 321.487L428.607 322.132L427.465 322.111Z"/>
	<path fill="#BB8F21" d="M350.644 385.968C350.24 378.601 351.598 371.552 353.89 364.569C357.07 354.885 361.205 347.424 370.509 342.682C373.466 343.928 376.397 345.448 378.924 347.444C382.125 349.973 385.032 353.197 387.981 356.025L402.563 369.851C406.474 373.575 411.145 377.015 414.719 381.023C415.955 382.408 416.857 383.864 417.677 385.523L416.723 385.359C414.194 384.833 411.602 381.493 409.677 379.75L394.005 365.704C388.754 360.834 384.07 355.475 378.444 351.007C376.735 349.649 374.752 347.953 372.633 347.325C370.935 346.822 369.134 347.529 367.689 348.415C359.248 353.59 355.134 366.071 353.226 375.36C352.493 378.926 352.151 382.629 350.644 385.968Z"/>
	<path fill="#BB8F21" d="M433.774 387.116L433.94 386.707C435.72 382.814 439.193 379.925 442.249 377.039L456.604 363.712C462.539 358.105 467.821 352.068 474.382 347.123C476.84 345.271 479.295 344.186 482.158 343.144C486.118 344.332 489.231 345.538 491.903 348.903C498.782 357.562 503.196 372.654 502.128 383.566C498.712 372.754 498.205 360.379 489.977 351.651C488.933 350.544 487.566 348.959 486.159 348.336C483.542 347.179 481.672 347.341 479.116 348.52C471.226 352.159 464.196 360.63 458.022 366.699L446.427 377.434C442.432 381.162 439.181 385.401 433.774 387.116Z"/>
	<path fill="#C9BC05" d="M433.774 387.116C439.181 385.401 442.432 381.162 446.427 377.434L458.022 366.699C464.196 360.63 471.226 352.159 479.116 348.52C481.672 347.341 483.542 347.179 486.159 348.336C487.566 348.959 488.933 350.544 489.977 351.651C498.205 360.379 498.712 372.754 502.128 383.566C501.768 387.843 500.156 390.545 497.155 393.592C490.623 395.336 482.258 393.553 475.5 393.126L433.273 389.836L433.774 387.116Z"/>
	<path fill="#C9BC05" d="M350.644 385.968C352.151 382.629 352.493 378.926 353.226 375.36C355.134 366.071 359.248 353.59 367.689 348.415C369.134 347.529 370.935 346.822 372.633 347.325C374.752 347.953 376.735 349.649 378.444 351.007C384.07 355.475 388.754 360.834 394.005 365.704L409.677 379.75C411.602 381.493 414.194 384.833 416.723 385.359L417.677 385.523C417.879 386.876 418.062 388.175 418.073 389.548L417.986 394.53C403.712 393.36 388.999 394.373 374.677 394.764C370.077 394.89 363.884 396.018 359.546 395.07L358.986 393.443C357.588 393.387 356.119 393.043 354.922 392.296C352.661 390.885 351.303 388.483 350.644 385.968Z"/>
	<path fill="#FCE414" d="M358.986 393.443C363.009 392.045 368.897 392.43 373.171 392.214L399.192 390.939C405.436 390.663 411.915 390.619 418.073 389.548L417.986 394.53C403.712 393.36 388.999 394.373 374.677 394.764C370.077 394.89 363.884 396.018 359.546 395.07L358.986 393.443Z"/>
	<path fill="#C9BC05" d="M375.14 336.43C378.14 335.183 380.596 331.209 382.906 328.911C389.064 322.785 398.673 317.147 407.201 315.437C412.156 314.444 416.344 314.82 420.582 317.694C421.653 318.42 422.746 319.001 423.903 319.578L424.54 321.34L424.56 364.742C424.566 368.406 424.988 372.856 424.197 376.444C423.775 378.359 422.45 380.401 421.517 382.125L420.905 381.976C419.476 381.302 417.626 379.324 416.349 378.247L399.098 362.596C392.735 356.662 385.665 351.141 379.987 344.53C377.831 342.019 376.222 339.595 375.14 336.43Z"/>
	<path fill="#C9BC05" d="M427.465 322.111L428.607 322.132L429.019 321.487C431.415 317.777 433.537 315.863 437.646 314.261C449.74 315.536 464.525 321.066 472.394 330.891C473.898 332.77 474.932 335.247 477.369 335.753L477.624 335.754C477.194 338.062 476.575 339.497 475.147 341.37C471.083 346.7 465.422 350.96 460.631 355.634C452.317 363.744 444.611 373.034 434.994 379.631L430.658 382.33C428.221 378.693 427.784 376.098 426.567 372.015L425.386 371.686L424.56 364.742L424.54 321.34C425.4 321.559 426.299 321.73 427.12 322.068L427.465 322.111Z"/>
	<path fill="#F0F9DA" d="M424.54 321.34C425.4 321.559 426.299 321.73 427.12 322.068L426.567 372.015L425.386 371.686L424.56 364.742L424.54 321.34Z"/>
	<path fill="#F69F0C" d="M327.91 370.527L327.922 369.669C328.027 366.024 329.192 362.096 330.185 358.614C335.249 340.861 345.636 324.508 359.029 311.846C378.738 293.211 403.73 284.105 430.732 285.066C450.912 285.784 471.036 293.723 486.799 306.247C493.133 311.279 498.767 317.339 504.269 323.252C512.932 335.527 521.17 350.315 523.296 365.426C523.848 369.351 523.559 373.316 523.83 377.25L523.999 397.357C520.179 397.672 516.238 397.234 512.415 397.001C512.469 391.766 512.774 386.351 512.353 381.137C510.66 360.147 502.275 338.818 487.428 323.633C470.499 306.319 448.386 298.066 424.383 297.805C402.04 297.562 379.453 307.89 363.748 323.442C347.36 339.669 338.648 362.282 338.597 385.25C338.588 389.346 339.271 393.462 339.922 397.495C337.671 397.947 335.113 397.678 332.811 397.655L326.44 397.417L327.91 370.527Z"/>
</svg>
